<svg xmlns="http://www.w3.org/2000/svg" xmlns:xlink="http://www.w3.org/1999/xlink" width="107.004" height="110.706" viewBox="0 0 107.004 110.706"><defs><style>.a{fill:#f2f4f6;}.b{fill:#fff;}.b,.c,.d,.e,.f,.g,.h,.i,.j,.k,.l{stroke:#3e240f;stroke-width:1.5px;}.b,.c,.d,.e,.f,.g,.h,.i,.j,.k{fill-rule:evenodd;}.c{fill:#1a171b;}.d{fill:#87888a;}.e{fill:#d6d4ec;}.f{fill:#24211d;}.g{fill:#dddddc;}.h{fill:#fce1d0;}.i{fill:#e4e4e4;}.j{fill:#d1945f;}.k{fill:url(#a);}.l{fill:none;}</style><linearGradient id="a" x1="0.596" y1="0.498" x2="-0.077" y2="0.83" gradientUnits="objectBoundingBox"><stop offset="0" stop-color="#fff"/><stop offset="1" stop-color="#ededee"/></linearGradient></defs><g transform="translate(-126.996 -425)"><g transform="translate(127 425)"><ellipse class="a" cx="53.5" cy="53.318" rx="53.5" ry="53.318" transform="translate(0 0)"/></g><g transform="translate(127.578 437.114)"><g transform="translate(0)"><path class="b" d="M719.282,424.984c8.218-2.427,10.117-4.616,10.03-13.3l-1.369.291c-1.067,7.085-1.811,8.7-8.8,10.655Z" transform="translate(-626.332 -375.381)"/><path class="c" d="M736.586,402.055c3.71-3.387,3.311-6.708-.755-11.766C733.318,393.783,731.419,398.507,736.586,402.055Z" transform="translate(-634.296 -363.314)"/><path class="d" d="M739.036,394.942c1.586,1.909,2.891,4.595,1.057,7.668A11.38,11.38,0,0,0,739.036,394.942Z" transform="translate(-637.512 -365.932)"/><path class="d" d="M736.479,398.513c-.82,1.628-1.294,3.764.529,5.662A11.608,11.608,0,0,1,736.479,398.513Z" transform="translate(-635.667 -367.942)"/><path class="e" d="M515.723,432.271c-6.784,1.865-9.426,8.121-6.557,17.913l1.4-.766c-1.057-8.682.054-14.02,6.093-14.624Z" transform="translate(-507.682 -386.999)"/><path class="b" d="M547.384,350.877c-6.708-1.089-6.223-3.926-4.627-8.94,2.028-6.385,3.365-9.362,3.009-10.03s-2.437.993-6.762,8.142c-5.134,8.467-4.346,16.307,8.973,18.507Z" transform="translate(-523.446 -330.312)"/><path class="f" d="M675.5,526.182a34.357,34.357,0,0,1-.949,4.94c2.081,1.358,3.429,1.121,5.651.291l-.862-5.091Z" transform="translate(-601.271 -439.934)"/><path class="g" d="M658.79,456.073a15.89,15.89,0,0,0,4.692,11.109c4.217,4.713,3.882,7.452,2.815,12.952-.518,2.621.119,2.847,1.553,2.912,2.48.108,3.538-.313,3.472-1.908-.064-1.769-.646-2.934-.485-4.854a50.649,50.649,0,0,1,1.93-9.34c1.887-6.73,3.624-13.546,2.071-19.8Z" transform="translate(-592.414 -395.515)"/><path class="f" d="M703.309,526.872a33.046,33.046,0,0,1-.96,4.95c2.082,1.349,3.44,1.122,5.651.281l-.852-5.08Z" transform="translate(-616.894 -440.322)"/><path class="h" d="M686.614,456.773a15.833,15.833,0,0,0,4.692,11.1c4.217,4.724,3.882,7.453,2.8,12.953-.507,2.632.129,2.847,1.553,2.912,2.491.118,3.549-.313,3.484-1.9-.065-1.78-.658-2.945-.5-4.865a52.756,52.756,0,0,1,1.931-9.339c1.9-6.73,3.623-13.546,2.081-19.8Z" transform="translate(-608.051 -395.902)"/><path class="f" d="M683.709,539.355a35.759,35.759,0,0,0,.96,4.939c-2.081,1.359-4.131,1.047-6.352.216l1.564-5.015Z" transform="translate(-603.388 -447.338)"/><path class="h" d="M682.866,507.095c.518-.291.464-.723.108-1.564-2.459-5.77.734-11.194,3.117-18.2l-9.792-5.662c1.046,6.988,2.782,15.638,2.168,23.306-.151,1.866-.82,2.438,1.65,2.567A5.7,5.7,0,0,0,682.866,507.095Z" transform="translate(-602.254 -414.915)"/><path class="f" d="M655.034,539.355a32.761,32.761,0,0,0,.96,4.939c-2.081,1.359-4.141,1.047-6.363.216l1.564-5.015Z" transform="translate(-587.267 -447.338)"/><path class="h" d="M653.6,510.167c.529-.291.464-.723.108-1.564-2.448-5.77.744-11.194,3.128-18.2l-10.256-3.268c1.057,6.988,3.235,13.243,2.62,20.912-.14,1.866-.809,2.438,1.661,2.567A5.628,5.628,0,0,0,653.6,510.167Z" transform="translate(-585.551 -417.988)"/><path class="h" d="M650.424,403.541c8,.712,14.431,3.753,18.593,8.412,12.932,14.484,1.974,38.384-15.519,39.732a18.976,18.976,0,0,1-10.192-1.866c-10.666-5.544-13.147-29.076-5.824-40.3C640.028,405.6,646.4,403.185,650.424,403.541Z" transform="translate(-578.084 -370.867)"/><path class="g" d="M640.852,437.337a120.027,120.027,0,0,1-.744-18.6,19.362,19.362,0,0,1,1.153-2.027C643.807,412.79,639.429,438.491,640.852,437.337Z" transform="translate(-581.864 -377.999)"/><path class="f" d="M568.92,522.144a35.486,35.486,0,0,0,.992,5.112c-2.157,1.392-3.548,1.154-5.846.291l.885-5.263Z" transform="translate(-539.18 -437.665)"/><path class="i" d="M571.612,449.59a16.472,16.472,0,0,1-4.853,11.5c-4.368,4.875-4.023,7.712-2.912,13.4.528,2.717-.129,2.955-1.607,3.02-2.567.108-3.667-.323-3.6-1.974.075-1.844.679-3.041.506-5.026a52.4,52.4,0,0,0-2-9.663c-1.952-6.967-3.742-14.021-2.146-20.491Z" transform="translate(-533.74 -391.696)"/><path class="f" d="M540.146,522.857a35.381,35.381,0,0,0,.981,5.112c-2.146,1.4-3.548,1.165-5.846.3l.885-5.263Z" transform="translate(-523.003 -438.066)"/><path class="f" d="M559.495,535.761a35.185,35.185,0,0,1-.993,5.112c2.157,1.4,4.281,1.089,6.579.226l-1.618-5.187Z" transform="translate(-536.053 -445.318)"/><path class="f" d="M589.154,535.761a36.575,36.575,0,0,1-.982,5.112c2.146,1.4,4.271,1.089,6.568.226l-1.618-5.187Z" transform="translate(-552.727 -445.318)"/><path class="e" d="M585.472,505.548c-.539-.3-.485-.744-.108-1.618,2.535-5.964-.766-11.572-3.225-18.831l10.6-3.386c-1.089,7.237-3.354,13.708-2.718,21.645.151,1.92.842,2.524-1.715,2.653A5.778,5.778,0,0,1,585.472,505.548Z" transform="translate(-549.337 -414.943)"/><path class="e" d="M563.579,425.62l-7.366-30.467c-12.36-1.176-22.282,2.059-28.019,8.11-6.784,7.139-7.2,16.641-3.635,24.439.518,2.631,1.24,5.274,1.974,7.916a53.627,53.627,0,0,1,2.006,9.663c.162,1.984-.442,3.192-.518,5.026-.064,1.65,1.035,2.081,3.6,1.974,1.477-.065,2.135-.3,1.607-3.02-.884-4.54-1.284-7.269.82-10.677a22.358,22.358,0,0,0,10.192,3.365C553.862,442.649,562.921,437.818,563.579,425.62Z" transform="translate(-515.731 -366.162)"/><path class="b" d="M613.086,345.329c5.554-2.395,4.508-4.735,2.049-8.714-3.128-5.058-4.94-7.345-4.767-7.991s2.308.324,7.6,5.543c6.255,6.19,8.326,12.521-2.686,17.309Z" transform="translate(-565.195 -328.442)"/><path class="j" d="M657.9,433.044c-3.429,7.841-6.9,16.986-1.153,20.675.647.41.183,1.553-.572,1.758-6.838-3.839-3.743-13.254-.086-23.231Z" transform="translate(-588.664 -387)"/><path class="j" d="M674.172,441.48c-1.855,8.347-4.444,17.784-11.27,17.363-.755-.043-1.057,1.154-.572,1.758,7.787.938,10.849-8.488,13.773-18.7Z" transform="translate(-594.271 -392.196)"/><path class="b" d="M630.312,375.919c-.194,3.225.334,4.767,3.893,6.87l-3.537,4.788c-6.8-2.589-4.357-9.426-2.307-12.5C630.053,372.533,630.474,373.342,630.312,375.919Z" transform="translate(-574.095 -353.866)"/><path class="g" d="M630.667,388.459c-6.8-2.589-4.357-9.426-2.307-12.5a8.6,8.6,0,0,1,.625-.862c-1.963,3.278-3.807,9.534,2.632,11.993Z" transform="translate(-574.095 -354.749)"/><path class="k" d="M701.941,375.579c-.184,3.656-.982,5.3-5.231,7l3.365,6.028c7.948-1.661,6.082-9.771,4.163-13.611C702.663,371.836,702.081,372.667,701.941,375.579Z" transform="translate(-613.725 -353.558)"/><path class="h" d="M633.9,420.392C614.72,436,667.156,444.647,655.487,423.5a138.362,138.362,0,0,0,5.889-22.174,4.317,4.317,0,0,0,1.262-.388c3.915-1.909,1.229-14.344-5.683-9.027-6.277-2.858-12.349-2.5-19.186-.054-4.886-5.6-9.21,4.174-6.244,6.687a5.1,5.1,0,0,0,1.844.916A112.907,112.907,0,0,0,633.9,420.392Z" transform="translate(-576.029 -363.164)"/><path class="e" d="M587.535,396.652c3.128,2.686,4.54,6.277,3,9.427-4.444,9.07-29.432,11.507-25.356-5.242a151.714,151.714,0,0,1-8.455-22.088,4.534,4.534,0,0,1-1.251-.226c-4.023-1.456-2.976-14.646,4.357-10.073,5.705-3.786,11.615-4.239,18.518-2.61,4.023-6.428,9.415,3.074,6.859,6.061a4.667,4.667,0,0,1-1.65,1.2C584.936,380.324,587.427,389.427,587.535,396.652Z" transform="translate(-533.044 -348.346)"/><path class="e" d="M508.689,466.669c-2.933,4.939-1.4,8.444,4.746,12.639C515.03,474.638,515.526,468.826,508.689,466.669Z" transform="translate(-507.249 -406.382)"/><path class="e" d="M555.8,502.365c-.539-.3-.475-.744-.108-1.618,2.546-5.964-.755-11.572-3.224-18.831L562.6,476.05c-1.078,7.237-2.869,16.189-2.243,24.126.162,1.92.852,2.524-1.715,2.653A5.8,5.8,0,0,1,555.8,502.365Z" transform="translate(-532.663 -411.76)"/></g><path class="l" d="M2160.184,510.724c6.024-1.614,6.032-3.048,6.032-3.048" transform="translate(-2131.829 -475.606)"/><path class="l" d="M0,3.048C6.024,1.434,6.032,0,6.032,0" transform="matrix(0.799, 0.602, -0.602, 0.799, 61.415, 40.162)"/><path class="l" d="M0,3.048C6.024,1.434,6.032,0,6.032,0" transform="translate(73.777 41.217) rotate(21)"/><path class="l" d="M0,3.048C6.024,1.434,6.032,0,6.032,0" transform="matrix(0.914, 0.407, -0.407, 0.914, 43.689, 28.368)"/></g></g></svg>