<svg xmlns="http://www.w3.org/2000/svg" xmlns:xlink="http://www.w3.org/1999/xlink" width="512" height="381" viewBox="0 0 512 381"><defs><style>.a{fill:#fff;stroke:#707070;}.b{clip-path:url(#a);}.c{fill:#e3fcef;fill-rule:evenodd;}</style><clipPath id="a"><rect class="a" width="512" height="381" transform="translate(0 321)"/></clipPath></defs><g class="b" transform="translate(0 -321)"><path class="c" d="M-383.446,930.231c0-17.172.556-55.233.556-95.312V593.166c0-7.661-3.437-18.358,1.785-24.532,1.807-2.138,4.658-3.738,9.048-4.475,32.345-5.432,64.983-13.279,97.8-18.44,31.456-4.941,67.566-9.675,98.393-.517,48.043,14.279,74.108,54.013,73.582,92.441-.591,43.429-23.444,83.753-46.007,122.681-14.232,24.558-33.613,48.331-39.236,76.82-6.443,32.65,16.561,53.888,48.289,54.681,43.726,1.091,83.786-22.5,120.374-43.7C15.969,827.952,47.507,802.7,81.81,781.7c31.4-19.229,58.893-29.4,96.2-25.2,62.788,7.075,114.181,51.09,146.3,103.279,9.682,15.728,24.851,37.157,24.89,56.17,0,1.548-.022,18.822,0,18.822l-732.647-4.543" transform="translate(162.4 -232.774)"/></g></svg>