<svg xmlns="http://www.w3.org/2000/svg" xmlns:xlink="http://www.w3.org/1999/xlink" width="107" height="122.03" viewBox="0 0 107 122.03"><defs><style>.a{fill:none;stroke:#707070;}.b{fill:#f2f4f6;}.c{clip-path:url(#a);}.d{fill:#6554c0;fill-rule:evenodd;opacity:0.201;}.e{fill:#3e240f;}</style><clipPath id="a"><path class="a" d="M-303.852-3236.207l12.841,30.411,13.711,4.268,2.93,12.432v10.886l1.142,3.4-1.142,9.474-1.335,11.365,2.477,18.6,67.457,4.086,2.044-50.121-11.209-27.391-21.113-44.519-35.24,6.111Z"/></clipPath></defs><g transform="translate(-315 -417.985)"><g transform="translate(-147 32.5)"><circle class="b" cx="53.5" cy="53.5" r="53.5" transform="translate(462 393)"/></g><g class="c" transform="translate(624.79 3671.297)"><g transform="translate(-646.321 -3672.738)"><g transform="translate(327.951 440.496)"><path class="d" d="M335.713,230.487c-.546,8.579,8.18,13.341,19.029,17.228l.543,59.206,5.551-.723h0c-.07-.045-.138-.091-.206-.137l-.01-.007q-.41-.279-.776-.577h0c-.062-.05-.123-.1-.183-.152l0,0q-.088-.075-.174-.151l-.009-.008q-.165-.147-.322-.3l-.01-.009,0,0q-.079-.077-.156-.154l0,0c-.054-.054-.106-.108-.158-.163a8.886,8.886,0,0,1-2.484-6.7,10.7,10.7,0,0,1,2.819-6.508c2.992-3.316,8.14-5.283,14.344-3.537l.01,0,.011,0h0l.008,0,.011,0,0,0,.016.005.007,0h0l.01,0,.009,0h0l.01,0,.01,0h0l.008,0,.01,0,0,0,.005,0,.01,0,.006,0h0l.009,0,.009,0h0l.009.005.01,0h0l.008,0,.009.005,0,0,.006,0,.009.005.005,0,0,0,.009.005.008.005h0l.008.006.009.006h0l.008.005.008.006,0,0,.005,0,.008.006,0,0,0,0,.008.006.006,0h0l.008.006.008.007h0l.008.006.008.007.008.007.008.007.008.007.007.007.006.005,0,0,.007.007.007.007.007.008.007.007,0,0,.005.006.007.008,0,0,0,0,.007.008,0,.005,0,0,.006.008.006.007h0l.007.008.006.008h0l0,.007.012.016.006.008,0,.005,0,0,.006.008a.946.946,0,0,1-1.04,1.44,14.238,14.238,0,0,0-5.333-.509c-6.112,1.81-7.837,6.361-7.962,8.62-.129,2.325.63,7.867,11.6,9.4a45.627,45.627,0,0,0,8.827-.619.945.945,0,0,1,.361.013c1.586-1.138,3.781-2.914,4.993-3.909q-.85-6.562-1.67-13.3l-.024-.195-.026-.212-.05-.406,0-.027-.046-.38-.032-.267-.017-.141-.049-.407-.012-.1-.037-.308-.041-.339-.008-.069-.049-.408-.021-.171-.029-.237-.049-.408v0l-.049-.406-.029-.243-.02-.166-.049-.409-.009-.075-.04-.334-.038-.315-.011-.094-.049-.41L383,282.62l-.031-.262-.047-.389,0-.021-.049-.41-.026-.219-.023-.19-.049-.411-.006-.05-.043-.36-.035-.292-.014-.118-.049-.411-.015-.123-.034-.288-.043-.365-.005-.046-.049-.411-.023-.2-.025-.216-.049-.412,0-.026-.045-.385-.032-.268-.017-.144-.049-.412-.012-.1-.037-.314-.04-.341-.008-.071-.049-.412-.02-.172-.029-.241-.049-.413h0l-.048-.411-.029-.244-.02-.168-.049-.413-.009-.074-.04-.339-.037-.317-.011-.1-.049-.413-.017-.147-.031-.266-.046-.39,0-.023-.049-.414-.026-.22-.023-.194-.048-.414-.006-.049-.042-.364-.034-.293-.014-.121-.048-.414-.014-.123-.034-.291-.042-.366-.006-.048-.049-.414-.023-.2-.026-.219-.048-.414,0-.025-.045-.389-.031-.268-.017-.146-.048-.414-.011-.1-.037-.316-.04-.341-.008-.073-.048-.414-.02-.17-.029-.244-.048-.414c-1.559-13.358-3.118-26.717-4.725-39.161l-6.3,7.948h0a.944.944,0,0,1-.947.334l-28.937-6.552a7.68,7.68,0,0,1-2.152,3.821l-.026.023-.024.022h0l-.026.023-.023.02,0,0-.026.022-.021.018,0,0-.026.022-.02.017-.007.005-.026.022-.018.015-.008.007-.027.021-.017.013-.01.008-.027.021-.016.012-.012.009-.027.021-.014.01-.014.01-.028.02-.012.009-.016.011-.028.02-.01.008-.018.012-.028.02-.008.006-.02.013-.028.019-.008,0-.021.014-.029.019-.005,0-.024.015-.029.018,0,0-.049.031-.005,0h0l-.028.017-.029.018-.03.018-.028.017h0l-.03.018-.026.015,0,0-.03.017-.024.014-.006,0-.031.017-.023.012-.008,0-.031.016-.021.011-.01.005-.031.016-.019.01-.012.006-.031.016-.018.009-.014.007-.032.015-.016.008-.016.008-.032.015-.014.006-.018.008-.032.015-.012.005-.02.009-.032.014-.01,0-.023.009-.032.014-.033.013-.033.014-.006,0-.027.011-.033.013,0,0-.029.012-.034.013h0l-.032.012-.034.012-.034.013-.032.011Z" transform="translate(-305.837 -220.518)"/><path class="e" d="M273.136,277.831a.946.946,0,0,1-1.167.656c-5.415-1.524-9.866.145-12.425,2.982a8.805,8.805,0,0,0-2.338,5.346,7.03,7.03,0,0,0,1.973,5.3c2.921,3.094,9.173,4.964,19.922,3.262a.945.945,0,0,1,.3,1.867c-11.473,1.816-18.294-.336-21.6-3.833a8.886,8.886,0,0,1-2.484-6.7,10.7,10.7,0,0,1,2.819-6.508c2.992-3.316,8.14-5.283,14.344-3.537m-36.887-15.539c-.293.259-1.232-.8-.939-1.061C235.764,259.079,236.428,260.385,235.593,261.125Zm-3.322,6.351c.9,0,1.792-.981,1.344-1.471S231.375,267.477,232.271,267.476Zm4.633-53.482-3.807-.862a20.5,20.5,0,0,0-.758,4.729,4.4,4.4,0,0,0,2.993-1.035A5.793,5.793,0,0,0,236.9,213.994Zm21.561,10.278c.1.38-1.283.725-1.378.344a2.679,2.679,0,0,0-1.28-1.927,3.5,3.5,0,0,0-2.539.085.709.709,0,0,1-.433-1.35,4.807,4.807,0,0,1,3.578-.018A4,4,0,0,1,258.465,224.272Zm-44.943,57.294c.521.036.388,1.925-.133,1.888a6.461,6.461,0,0,0-5.9,3.1,5.076,5.076,0,0,0-.778,2.639,4.175,4.175,0,0,0,.919,2.583c1.617,2.072,5.422,3.633,12.475,3.457l-.478-23.812-2.03.623a.709.709,0,0,1-.417-1.356l2.418-.742-.062-3.057-2.583.248a.709.709,0,0,1-.134-1.411l2.688-.259-.387-19.311a.944.944,0,0,1,1.584-.714h0c3.838,3.539,7.661,5.432,11.467,5.355s7.668-2.125,11.611-6.466a.946.946,0,0,1,1.646.672c.156,6.623.307,13.517.456,20.464l2.713.261a.709.709,0,0,1-.134,1.411l-2.549-.245.067,3.1,2.255.692a.709.709,0,0,1-.417,1.356l-1.807-.555c.169,7.9.339,15.8.518,23.439.683-.033,1.388-.047,2.092-.062s1.387-.029,2.1-.067c-.081-9.206-.162-18.8-.243-28.4-.081-9.664-.163-19.328-.245-28.593-7.161-2.22-12.786-5.205-16.182-9.3-.018-.021-.034-.043-.049-.065-3.538-4.3-4.62-9.752-2.466-16.706a.946.946,0,0,1,1.135-.639l5.531,1.253.017,0c.027.005.054.012.08.019l29.224,6.617,7.325-9.236a.946.946,0,0,1,1.684.513c1.745,13.343,3.38,27.353,5.015,41.362,1.617,13.852,3.234,27.7,4.9,40.535a18.4,18.4,0,0,0,8.267-2.016,9.4,9.4,0,0,0,3.723-3.625,10.145,10.145,0,0,0,1.2-5.12,21.7,21.7,0,0,0-3.131-10.057.945.945,0,0,1,1.652-.919,23.538,23.538,0,0,1,3.367,10.953,12,12,0,0,1-1.432,6.061,11.275,11.275,0,0,1-4.456,4.359,20.914,20.914,0,0,1-9.969,2.274.945.945,0,0,1-.981-.821c-1.747-13.357-3.384-27.384-5.021-41.409-1.559-13.358-3.118-26.717-4.725-39.161l-6.3,7.948h0a.944.944,0,0,1-.947.334l-28.937-6.552a7.68,7.68,0,0,1-2.152,3.821,6.187,6.187,0,0,1-4.213,1.518,13.362,13.362,0,0,0,3.076,7.5c.016.016.031.034.047.052,3.24,3.905,8.8,6.758,15.932,8.895v0a.945.945,0,0,1,.674.9c.084,9.477.168,19.384.251,29.29.083,9.879.167,19.758.25,29.212v.008a.948.948,0,0,1-.867,1.022c-.984.082-2.038.1-3.09.126-.974.02-1.949.04-2.972.125v0l-.055,0a.945.945,0,0,1-.967-.922c-.191-8.078-.373-16.563-.555-25.053l-4.737-1.454a.709.709,0,1,1,.417-1.355l4.289,1.316-.058-2.7-4.255-.409a.709.709,0,0,1,.134-1.411l4.091.393c-.131-6.082-.263-12.133-.4-18.041-3.786,3.63-7.581,5.365-11.383,5.443-3.772.076-7.489-1.483-11.157-4.444l.342,17.045,4.123-.4a.709.709,0,1,1,.133,1.411l-4.228.406.054,2.662,4.15-1.274a.709.709,0,1,1,.417,1.355l-4.538,1.393.507,25.248v.013a.945.945,0,0,1-.9.985c-8.363.373-12.948-1.563-14.968-4.151a6.037,6.037,0,0,1-1.319-3.738,6.958,6.958,0,0,1,1.052-3.624A8.372,8.372,0,0,1,213.522,281.565Z" transform="translate(-204.819 -209.395)"/></g></g></g></g></svg>