<svg xmlns="http://www.w3.org/2000/svg" xmlns:xlink="http://www.w3.org/1999/xlink" width="346" height="232" viewBox="0 0 346 232"><defs><style>.a{fill:#fff;stroke:#707070;}.b{clip-path:url(#a);}.c{fill:#dbdbdb;fill-rule:evenodd;opacity:0.355;}</style><clipPath id="a"><rect class="a" width="346" height="232"/></clipPath></defs><g class="b"><path class="c" d="M536.632-557a23.526,23.526,0,0,1,.37,4.353c-.012,6.819-2.161,15.305-4.551,23.4-2.39,8.069-5.054,15.751-6.143,20.416C513.5-454.27,503.479-384.4,481.132-322.29c-11.18,31.06-25.448,60.2-44.761,84.528s-43.7,43.816-74.951,55.434a157.058,157.058,0,0,1-55.055,9.427c-32,0-64.465-8.215-94.355-19.883C121.561-228.131,39.853-280.09-56.019-298.828a162.6,162.6,0,0,0-31.162-3.216c-34.022.029-58.2,12.831-74.14,33.21s-23.527,48.581-23.523,79.291c0,24.932,5,51.493,14.509,76.771C-137.823-26.145-75.976,31.006-34.773,110.685c12.506,24.27,27.567,60.991,27.6,90.956,0,11.368-2.19,21.845-7.743,30.231S-29.4,246.385-42.217,249l-.84-4.082c11.982-2.483,19.733-7.919,24.683-15.351s7.053-17.076,7.049-27.927c.037-28.611-14.767-65.132-27.139-89.039C-79.148,33.726-141.214-23.587-174.226-111.3-183.9-137.029-189-164.053-189-189.543c0-31.377,7.734-60.483,24.4-81.858,16.662-21.391,42.35-34.838,77.415-34.809a166.7,166.7,0,0,1,31.956,3.3c96.861,18.975,178.79,71.143,268.744,106.248,29.558,11.543,61.56,19.6,92.847,19.6a152.872,152.872,0,0,0,53.609-9.165c30.485-11.343,54.212-30.289,73.143-54.126,28.394-35.742,45.912-82.532,58.684-130.68s20.818-97.617,30.46-138.745c1.193-5.066,3.849-12.668,6.209-20.646,2.361-7.948,4.389-16.272,4.376-22.22a19.458,19.458,0,0,0-.3-3.566l4.081-.787" transform="translate(2.688 -113.369) rotate(150)"/></g></svg>