<svg xmlns="http://www.w3.org/2000/svg" xmlns:xlink="http://www.w3.org/1999/xlink" width="60" height="60" viewBox="0 0 60 60"><defs><style>.a{fill:none;}.b{fill:url(#a);}.c{fill:url(#b);}.d{fill:url(#c);}.e{fill:url(#d);}.f{clip-path:url(#e);}.g{fill:#4c2207;}.h{fill:#4e2408;}.i{fill:#502509;}.j{fill:#52260b;}.k{fill:#54280c;}.l{fill:#56290d;}.m{fill:#582a0e;}.n{fill:#592c0f;}.o{fill:#5b2d10;}.p{fill:#5c2e10;}.q{fill:#5e2f11;}.r{fill:#5f3012;}.s{fill:#603013;}.t{fill:#613113;}.u{fill:#623214;}.v{fill:#633315;}.w{fill:#643315;}.x{fill:#653416;}.y{fill:#663516;}.z{fill:#673517;}.aa{fill:#673617;}.ab{fill:#683617;}.ac{fill:#683618;}.ad{fill:#693718;}.ae{fill:url(#f);}.af{clip-path:url(#g);}</style><radialGradient id="a" cx="1.174" cy="0.712" r="1.176" gradientTransform="matrix(-0.952, -0.306, -0.306, 0.952, 2.51, 0.394)" gradientUnits="objectBoundingBox"><stop offset="0" stop-color="#ffb199"/><stop offset="0.379" stop-color="#ffa71b"/><stop offset="1" stop-color="#e65800"/></radialGradient><linearGradient id="b" x1="-30.372" y1="-252.982" x2="-30.372" y2="-251.72" gradientUnits="objectBoundingBox"><stop offset="0" stop-color="#ffd71b"/><stop offset="1" stop-color="#e69900"/></linearGradient><radialGradient id="c" cx="0.5" cy="0.5" r="1.231" gradientTransform="translate(-40.042 -528.504) rotate(180) scale(0.3 1)" gradientUnits="objectBoundingBox"><stop offset="0" stop-color="#693718"/><stop offset="0.377" stop-color="#653415"/><stop offset="0.734" stop-color="#592c0f"/><stop offset="1" stop-color="#4c2207"/></radialGradient><linearGradient id="d" x1="0.018" y1="0.625" x2="0.018" y2="1.625" xlink:href="#b"/><clipPath id="e"><ellipse class="a" cx="3.964" cy="5.018" rx="3.964" ry="5.018" transform="translate(0 0.056) rotate(-0.406)"/></clipPath><linearGradient id="f" x1="0.018" y1="0.641" x2="0.018" y2="1.641" xlink:href="#b"/><clipPath id="g"><ellipse class="a" cx="3.964" cy="5.018" rx="3.964" ry="5.018" transform="matrix(1, -0.007, 0.007, 1, 0, 0.056)"/></clipPath></defs><g transform="translate(-65.448 -308.566)"><circle class="b" cx="30" cy="30" r="30" transform="translate(65.448 308.566)"/><g transform="translate(79.555 326.637)"><g transform="translate(1.813 16.885)"><path class="c" d="M3675.683,938.568l.3.007c.209,0,.423.008.636.018l.465.026c.184.009.338.021.484.038l.457.047c.108.012.212.026.317.041l.154.021c.275.034.564.081.938.151.117.02.237.046.354.071l.263.057c.1.023.208.045.312.07.313.077.618.154.919.247.318.09.632.195.9.284.1.034.2.072.3.11l.144.054c.167.061.313.118.448.175a17.534,17.534,0,0,1,3.329,1.788,15.66,15.66,0,0,1,1.5,1.172c.251.224.479.442.7.667.123.129.232.247.335.363l.164.189.176.214a1.757,1.757,0,0,1-.028,2.453,1.489,1.489,0,0,1-1.092.439,2.785,2.785,0,0,1-1.365-.425l-.058-.034-.157-.1c-.1-.059-.2-.119-.308-.178-.22-.127-.449-.249-.652-.357-.475-.247-.914-.456-1.34-.64a21.145,21.145,0,0,0-5.66-1.575l-.267-.033c-.152-.019-.307-.039-.456-.051l-.146-.015c-.077-.008-.149-.016-.222-.021l-.371-.024c-.158-.014-.316-.02-.468-.027l-.276-.012c-.142-.005-.292-.006-.442-.007l-.294,0-.279,0c-.151,0-.3,0-.45.007l-.267.012c-.154.006-.311.012-.46.026l-.383.025c-.072.005-.146.013-.22.021l-.141.014c-.155.012-.309.032-.459.051-.1.012-.186.024-.277.034a21.161,21.161,0,0,0-5.652,1.574c-.427.184-.866.394-1.344.642-.2.109-.432.23-.645.353-.109.062-.213.121-.314.182l-.148.091-.067.039a2.608,2.608,0,0,1-1.344.44,1.516,1.516,0,0,1-1.11-.455,1.756,1.756,0,0,1-.028-2.453l.169-.205.168-.194c.106-.119.215-.237.335-.364.219-.227.448-.445.7-.669a15.792,15.792,0,0,1,1.5-1.171,17.574,17.574,0,0,1,3.335-1.79c.132-.056.278-.113.444-.173l.145-.054c.1-.038.2-.075.3-.11.265-.09.579-.194.9-.286.294-.09.6-.167.911-.244.1-.025.208-.048.313-.07l.263-.057c.119-.026.238-.051.361-.072.367-.069.656-.116.932-.151l.15-.02c.106-.015.211-.029.316-.041l.464-.048c.142-.016.3-.028.482-.037l.459-.026c.217-.01.431-.014.638-.018l.3-.007h.02Z" transform="translate(-3661.593 -938.568)"/><path class="d" d="M3676.24,939.329l.3.007c.206,0,.418.008.629.018l.464.027c.18.009.331.021.473.037l.459.047c.1.011.208.026.312.04l.153.021c.271.034.557.08.927.15.116.019.235.045.349.07l.264.057c.1.022.2.044.306.069.31.076.612.152.908.244.317.09.629.193.891.282.1.034.2.071.3.108l.146.054c.165.061.309.117.44.172a17.386,17.386,0,0,1,3.294,1.769,15.52,15.52,0,0,1,1.479,1.157c.248.221.472.435.686.656.122.128.228.244.329.357l.163.188.178.216a1.558,1.558,0,0,1-.02,2.184,1.3,1.3,0,0,1-.953.381,2.621,2.621,0,0,1-1.259-.394l-.065-.038-.154-.094q-.153-.091-.314-.182c-.221-.128-.453-.251-.657-.36-.48-.249-.923-.461-1.353-.646a21.342,21.342,0,0,0-5.713-1.59l-.27-.033c-.152-.019-.309-.039-.463-.052l-.142-.014c-.075-.008-.152-.016-.228-.021l-.372-.024c-.159-.014-.319-.021-.475-.027l-.271-.012c-.148-.005-.3-.006-.452-.008l-.291,0-.284,0c-.153,0-.3,0-.456.008l-.268.012c-.155.006-.315.013-.469.027l-.379.025c-.075.005-.152.013-.227.021l-.14.014c-.156.013-.313.033-.466.052l-.273.033a21.345,21.345,0,0,0-5.709,1.589c-.431.186-.874.4-1.356.647-.2.108-.435.232-.653.358-.109.062-.215.122-.317.184l-.15.092-.069.041a2.445,2.445,0,0,1-1.24.41,1.329,1.329,0,0,1-.972-.4,1.558,1.558,0,0,1-.02-2.184l.175-.212.164-.19c.1-.116.211-.233.329-.357.216-.222.44-.437.688-.658a15.468,15.468,0,0,1,1.478-1.157,17.377,17.377,0,0,1,3.3-1.77c.129-.054.274-.11.439-.171l.146-.054c.1-.037.2-.074.295-.108.262-.089.574-.192.895-.284.293-.09.6-.166.9-.242.1-.025.205-.047.307-.069l.264-.057c.115-.025.232-.051.352-.071.366-.069.652-.115.924-.149l.153-.021c.1-.014.207-.029.31-.04l.463-.048c.14-.016.29-.028.472-.037l.461-.026c.212-.01.425-.015.631-.018l.3-.007h.011Z" transform="translate(-3662.154 -939.132)"/></g><g transform="translate(0 0)"><g transform="translate(0 0.165)"><path class="e" d="M3658.783,884.27c-2.3.016-4.189-2.315-4.21-5.2s1.835-5.24,4.136-5.256,4.189,2.315,4.209,5.2S3661.084,884.254,3658.783,884.27Z" transform="translate(-3654.573 -873.816)"/><g transform="translate(0.173 0.181)"><g transform="translate(0 0)"><g class="f" transform="translate(0)"><rect class="g" width="7.967" height="10.067" transform="translate(0.016 0.013)"/><ellipse class="g" cx="4.199" cy="5.422" rx="4.199" ry="5.422" transform="translate(-0.28 -0.298) rotate(-0.405)"/><ellipse class="h" cx="4.055" cy="5.235" rx="4.055" ry="5.235" transform="translate(-0.134 -0.112) rotate(-0.406)"/><path class="i" d="M3655.428,879.772c-.02-2.788,1.715-5.061,3.874-5.076s3.926,2.232,3.946,5.021-1.715,5.061-3.875,5.076S3655.448,882.56,3655.428,879.772Z" transform="translate(-3655.38 -874.649)"/><ellipse class="j" cx="3.765" cy="4.861" rx="3.765" ry="4.861" transform="translate(0.158 0.26) rotate(-0.406)"/><ellipse class="k" cx="3.62" cy="4.674" rx="3.62" ry="4.674" transform="translate(0.304 0.446) rotate(-0.406)"/><ellipse class="l" cx="3.475" cy="4.487" rx="3.475" ry="4.487" transform="matrix(1, -0.007, 0.007, 1, 0.45, 0.632)"/><path class="m" d="M3657.671,881.917c-.017-2.375,1.461-4.311,3.3-4.324s3.344,1.9,3.361,4.277-1.461,4.311-3.3,4.324S3657.688,884.292,3657.671,881.917Z" transform="translate(-3657.044 -876.798)"/><ellipse class="n" cx="3.186" cy="4.114" rx="3.186" ry="4.114" transform="translate(0.743 1.004) rotate(-0.406)"/><path class="o" d="M3658.794,882.989c-.016-2.169,1.333-3.936,3.012-3.948s3.053,1.736,3.069,3.9-1.334,3.937-3.013,3.948S3658.809,885.157,3658.794,882.989Z" transform="translate(-3657.877 -877.872)"/><path class="p" d="M3659.354,883.525c-.015-2.065,1.27-3.749,2.87-3.76s2.908,1.654,2.922,3.719-1.27,3.749-2.869,3.76S3659.368,885.59,3659.354,883.525Z" transform="translate(-3658.292 -878.41)"/><path class="q" d="M3659.914,884.061c-.014-1.962,1.207-3.561,2.726-3.572s2.762,1.571,2.776,3.533-1.206,3.561-2.726,3.572S3659.928,886.023,3659.914,884.061Z" transform="translate(-3658.708 -878.946)"/><ellipse class="r" cx="2.607" cy="3.366" rx="2.607" ry="3.366" transform="translate(1.327 1.748) rotate(-0.406)"/><ellipse class="s" cx="2.462" cy="3.179" rx="2.462" ry="3.179" transform="matrix(1, -0.007, 0.007, 1, 1.473, 1.934)"/><path class="t" d="M3661.6,885.669c-.012-1.652,1.016-3,2.3-3.008s2.327,1.323,2.338,2.975-1.016,3-2.3,3.008S3661.608,887.321,3661.6,885.669Z" transform="translate(-3659.957 -880.558)"/><path class="u" d="M3662.157,886.206c-.011-1.549.952-2.812,2.153-2.82s2.18,1.24,2.191,2.789-.953,2.812-2.152,2.82S3662.168,887.755,3662.157,886.206Z" transform="translate(-3660.372 -881.095)"/><path class="v" d="M3662.718,886.742a2.094,2.094,0,1,1,2.046,2.6A2.38,2.38,0,0,1,3662.718,886.742Z" transform="translate(-3660.788 -881.632)"/><path class="w" d="M3663.279,887.278a1.944,1.944,0,1,1,1.9,2.417A2.21,2.21,0,0,1,3663.279,887.278Z" transform="translate(-3661.204 -882.169)"/><path class="x" d="M3663.84,887.814a1.795,1.795,0,1,1,1.753,2.232A2.04,2.04,0,0,1,3663.84,887.814Z" transform="translate(-3661.621 -882.707)"/><path class="y" d="M3664.4,888.35a1.645,1.645,0,1,1,1.607,2.046A1.87,1.87,0,0,1,3664.4,888.35Z" transform="translate(-3662.036 -883.243)"/><path class="y" d="M3664.961,888.885a1.5,1.5,0,1,1,1.461,1.86A1.7,1.7,0,0,1,3664.961,888.885Z" transform="translate(-3662.452 -883.781)"/><path class="z" d="M3665.522,889.422a1.346,1.346,0,1,1,1.315,1.674A1.53,1.53,0,0,1,3665.522,889.422Z" transform="translate(-3662.868 -884.318)"/><path class="aa" d="M3666.084,889.958a1.2,1.2,0,1,1,1.169,1.488A1.359,1.359,0,0,1,3666.084,889.958Z" transform="translate(-3663.285 -884.855)"/><path class="ab" d="M3666.644,890.494a1.047,1.047,0,1,1,1.023,1.3A1.19,1.19,0,0,1,3666.644,890.494Z" transform="translate(-3663.7 -885.392)"/><path class="ac" d="M3667.2,891.03a.9.9,0,1,1,.876,1.115A1.02,1.02,0,0,1,3667.2,891.03Z" transform="translate(-3664.116 -885.929)"/><path class="ad" d="M3667.765,891.566a.748.748,0,1,1,.731.929A.85.85,0,0,1,3667.765,891.566Z" transform="translate(-3664.531 -886.466)"/><path class="ad" d="M3668.326,892.1a.6.6,0,1,1,.584.744A.681.681,0,0,1,3668.326,892.1Z" transform="translate(-3664.948 -887.003)"/><path class="ad" d="M3668.888,892.639a.449.449,0,1,1,.438.558A.51.51,0,0,1,3668.888,892.639Z" transform="translate(-3665.365 -887.541)"/><path class="ad" d="M3669.447,893.175a.3.3,0,1,1,.292.372A.34.34,0,0,1,3669.447,893.175Z" transform="translate(-3665.779 -888.078)"/><path class="ad" d="M3670.008,893.711a.15.15,0,1,1,.146.186A.17.17,0,0,1,3670.008,893.711Z" transform="translate(-3666.196 -888.615)"/></g></g></g></g><g transform="translate(23.324 0)"><path class="ae" d="M3749.107,883.63c-2.3.016-4.189-2.315-4.209-5.2s1.835-5.24,4.136-5.257,4.189,2.315,4.21,5.2S3751.408,883.614,3749.107,883.63Z" transform="translate(-3744.897 -873.177)"/><g transform="translate(0.173 0.181)"><g transform="translate(0 0)"><g class="af" transform="translate(0)"><rect class="g" width="7.967" height="10.067" transform="translate(0.016 0.013)"/><path class="g" d="M3744.632,878.061c-.021-2.995,1.841-5.436,4.161-5.452s4.217,2.4,4.238,5.393-1.842,5.436-4.161,5.452S3744.653,881.055,3744.632,878.061Z" transform="translate(-3744.874 -872.936)"/><ellipse class="h" cx="4.055" cy="5.235" rx="4.055" ry="5.235" transform="matrix(1, -0.007, 0.007, 1, -0.134, -0.112)"/><path class="i" d="M3745.753,879.133c-.02-2.788,1.714-5.061,3.874-5.076s3.925,2.232,3.945,5.021-1.715,5.061-3.874,5.076S3745.773,881.921,3745.753,879.133Z" transform="translate(-3745.706 -874.01)"/><path class="j" d="M3746.314,879.669c-.019-2.685,1.651-4.873,3.73-4.888s3.78,2.15,3.8,4.835-1.651,4.873-3.73,4.888S3746.333,882.354,3746.314,879.669Z" transform="translate(-3746.121 -874.547)"/><path class="k" d="M3746.875,880.205c-.019-2.582,1.588-4.686,3.587-4.7s3.635,2.067,3.653,4.649-1.588,4.686-3.587,4.7S3746.893,882.786,3746.875,880.205Z" transform="translate(-3746.537 -875.084)"/><ellipse class="l" cx="3.475" cy="4.487" rx="3.475" ry="4.487" transform="translate(0.45 0.632) rotate(-0.405)"/><path class="m" d="M3748,881.277c-.016-2.375,1.461-4.311,3.3-4.324s3.344,1.9,3.361,4.277-1.46,4.311-3.3,4.324S3748.013,883.652,3748,881.277Z" transform="translate(-3747.369 -876.159)"/><path class="n" d="M3748.557,881.814c-.016-2.272,1.4-4.124,3.157-4.136s3.2,1.819,3.215,4.091-1.4,4.124-3.156,4.136S3748.573,884.085,3748.557,881.814Z" transform="translate(-3747.785 -876.696)"/><path class="o" d="M3749.118,882.35c-.015-2.169,1.333-3.936,3.013-3.948s3.054,1.736,3.069,3.9-1.334,3.936-3.013,3.948S3749.133,884.518,3749.118,882.35Z" transform="translate(-3748.201 -877.233)"/><ellipse class="p" cx="2.896" cy="3.74" rx="2.896" ry="3.74" transform="translate(1.035 1.376) rotate(-0.405)"/><path class="q" d="M3750.239,883.422c-.014-1.962,1.207-3.561,2.726-3.572s2.762,1.571,2.776,3.533-1.206,3.561-2.726,3.572S3750.253,885.384,3750.239,883.422Z" transform="translate(-3749.033 -878.307)"/><path class="r" d="M3750.8,883.958c-.013-1.859,1.143-3.374,2.582-3.384s2.617,1.488,2.631,3.347-1.143,3.374-2.583,3.384S3750.813,885.816,3750.8,883.958Z" transform="translate(-3749.45 -878.844)"/><path class="s" d="M3751.361,884.494c-.012-1.755,1.08-3.187,2.439-3.2s2.471,1.406,2.484,3.161-1.08,3.187-2.439,3.2S3751.373,886.249,3751.361,884.494Z" transform="translate(-3749.865 -879.381)"/><path class="t" d="M3751.922,885.03c-.011-1.652,1.016-3,2.3-3.008s2.326,1.323,2.338,2.975-1.016,3-2.3,3.008S3751.934,886.682,3751.922,885.03Z" transform="translate(-3750.282 -879.918)"/><path class="u" d="M3752.482,885.566c-.011-1.549.953-2.812,2.152-2.82s2.181,1.24,2.192,2.789-.953,2.811-2.152,2.82S3752.493,887.115,3752.482,885.566Z" transform="translate(-3750.697 -880.456)"/><path class="v" d="M3753.043,886.1a2.094,2.094,0,1,1,2.046,2.6A2.38,2.38,0,0,1,3753.043,886.1Z" transform="translate(-3751.114 -880.993)"/><path class="w" d="M3753.6,886.638a1.944,1.944,0,1,1,1.9,2.417A2.21,2.21,0,0,1,3753.6,886.638Z" transform="translate(-3751.53 -881.53)"/><path class="x" d="M3754.165,887.174a1.795,1.795,0,1,1,1.753,2.232A2.04,2.04,0,0,1,3754.165,887.174Z" transform="translate(-3751.946 -882.067)"/><path class="y" d="M3754.726,887.711a1.645,1.645,0,1,1,1.607,2.045A1.87,1.87,0,0,1,3754.726,887.711Z" transform="translate(-3752.361 -882.604)"/><path class="y" d="M3755.287,888.247a1.5,1.5,0,1,1,1.461,1.859A1.7,1.7,0,0,1,3755.287,888.247Z" transform="translate(-3752.778 -883.142)"/><path class="z" d="M3755.848,888.783a1.346,1.346,0,1,1,1.315,1.674A1.53,1.53,0,0,1,3755.848,888.783Z" transform="translate(-3753.194 -883.679)"/><path class="aa" d="M3756.408,889.319a1.2,1.2,0,1,1,1.169,1.488A1.36,1.36,0,0,1,3756.408,889.319Z" transform="translate(-3753.609 -884.216)"/><path class="ab" d="M3756.968,889.855a1.047,1.047,0,1,1,1.023,1.3A1.19,1.19,0,0,1,3756.968,889.855Z" transform="translate(-3754.025 -884.753)"/><path class="ac" d="M3757.529,890.391a.9.9,0,1,1,.877,1.116A1.02,1.02,0,0,1,3757.529,890.391Z" transform="translate(-3754.441 -885.29)"/><path class="ad" d="M3758.091,890.927a.748.748,0,1,1,.73.93A.849.849,0,0,1,3758.091,890.927Z" transform="translate(-3754.858 -885.827)"/><path class="ad" d="M3758.651,891.463a.6.6,0,1,1,.585.744A.68.68,0,0,1,3758.651,891.463Z" transform="translate(-3755.273 -886.364)"/><path class="ad" d="M3759.213,892a.449.449,0,1,1,.438.558A.509.509,0,0,1,3759.213,892Z" transform="translate(-3755.69 -886.901)"/><path class="ad" d="M3759.772,892.535a.3.3,0,1,1,.292.372A.34.34,0,0,1,3759.772,892.535Z" transform="translate(-3756.104 -887.438)"/><path class="ad" d="M3760.334,893.071a.15.15,0,1,1,.146.186A.17.17,0,0,1,3760.334,893.071Z" transform="translate(-3756.521 -887.975)"/></g></g></g></g></g></g></g></svg>