<svg xmlns="http://www.w3.org/2000/svg" xmlns:xlink="http://www.w3.org/1999/xlink" width="60" height="60" viewBox="0 0 60 60"><defs><style>.a{fill:none;}.b{fill:url(#a);}.c{fill:url(#b);}.d{fill:url(#c);}.e{fill:url(#d);}.f{clip-path:url(#e);}.g{fill:#4c2207;}.h{fill:#4e2408;}.i{fill:#502509;}.j{fill:#52260b;}.k{fill:#54280c;}.l{fill:#56290d;}.m{fill:#582a0e;}.n{fill:#592c0f;}.o{fill:#5b2d10;}.p{fill:#5c2e10;}.q{fill:#5e2f11;}.r{fill:#5f3012;}.s{fill:#603013;}.t{fill:#613113;}.u{fill:#623214;}.v{fill:#633315;}.w{fill:#643315;}.x{fill:#653416;}.y{fill:#663516;}.z{fill:#673517;}.aa{fill:#673617;}.ab{fill:#683617;}.ac{fill:#683618;}.ad{fill:#693718;}.ae{fill:url(#f);}.af{clip-path:url(#g);}</style><radialGradient id="a" cx="1.028" cy="0.521" r="0.785" gradientTransform="matrix(-0.997, -0.073, -0.073, 0.997, 2.092, 0.076)" gradientUnits="objectBoundingBox"><stop offset="0" stop-color="#fff5bf"/><stop offset="0.419" stop-color="#ffe876"/><stop offset="1" stop-color="#e6ba00"/></radialGradient><linearGradient id="b" x1="0.5" y1="-0.156" x2="0.5" y2="1.106" gradientUnits="objectBoundingBox"><stop offset="0" stop-color="#ffd71b"/><stop offset="1" stop-color="#e69900"/></linearGradient><radialGradient id="c" cx="0.5" cy="0.5" r="1.231" gradientTransform="translate(0.35) scale(0.3 1)" gradientUnits="objectBoundingBox"><stop offset="0" stop-color="#693718"/><stop offset="0.377" stop-color="#653415"/><stop offset="0.734" stop-color="#592c0f"/><stop offset="1" stop-color="#4c2207"/></radialGradient><linearGradient id="d" x1="0.187" y1="0.62" x2="0.187" y2="1.62" xlink:href="#b"/><clipPath id="e"><ellipse class="a" cx="3.964" cy="5.018" rx="3.964" ry="5.018" transform="translate(0 0.056) rotate(-0.406)"/></clipPath><linearGradient id="f" x1="0.187" y1="0.636" x2="0.187" y2="1.636" xlink:href="#b"/><clipPath id="g"><ellipse class="a" cx="3.964" cy="5.018" rx="3.964" ry="5.018" transform="matrix(1, -0.007, 0.007, 1, 0, 0.056)"/></clipPath></defs><g transform="translate(-50.054 -311.054)"><circle class="b" cx="30" cy="30" r="30" transform="translate(50.054 311.054)"/><g transform="translate(63.658 348.291)"><path class="c" d="M3634.8,194.663l-.347-.008c-.244,0-.492-.01-.741-.021l-.542-.031c-.213-.011-.393-.024-.564-.044l-.531-.054c-.126-.014-.248-.031-.37-.048l-.18-.024c-.318-.04-.654-.095-1.09-.177-.137-.023-.277-.053-.412-.083l-.307-.066c-.121-.026-.243-.052-.364-.081-.364-.09-.719-.179-1.07-.287-.369-.105-.736-.227-1.045-.331-.116-.04-.232-.084-.351-.128l-.165-.063c-.2-.072-.367-.138-.525-.2a20.467,20.467,0,0,1-3.876-2.082,18.355,18.355,0,0,1-1.744-1.365c-.292-.261-.558-.515-.811-.776-.141-.151-.268-.288-.389-.423l-.191-.22-.206-.249a2.045,2.045,0,0,1,.032-2.857,1.735,1.735,0,0,1,1.274-.511,3.233,3.233,0,0,1,1.588.495l.069.04.183.112c.114.069.234.138.356.207.257.148.525.29.761.416.553.287,1.063.531,1.559.745a24.633,24.633,0,0,0,6.592,1.834l.311.038c.178.022.356.045.53.06l.171.017c.091.009.175.018.258.024l.432.028c.184.016.368.024.545.031.109,0,.216.008.322.014.166.006.34.007.515.008l.342,0c.1,0,.212,0,.325,0,.175,0,.349,0,.525-.008.1-.006.2-.01.311-.014.179-.007.361-.014.535-.03l.446-.029c.083-.006.17-.015.256-.024l.165-.017c.18-.014.359-.037.533-.06l.321-.039a24.631,24.631,0,0,0,6.583-1.833c.5-.214,1.008-.458,1.565-.747.236-.127.5-.268.751-.411.127-.072.248-.141.366-.212l.171-.106.079-.046a3.037,3.037,0,0,1,1.565-.512,1.769,1.769,0,0,1,1.294.531,2.043,2.043,0,0,1,.029,2.857l-.2.239-.195.227c-.123.138-.25.276-.39.423-.256.264-.521.519-.815.78a18.227,18.227,0,0,1-1.742,1.364,20.493,20.493,0,0,1-3.883,2.085c-.154.064-.324.131-.52.2l-.168.063c-.115.044-.231.088-.349.128-.308.1-.674.226-1.054.334-.341.105-.7.194-1.06.284-.12.03-.243.055-.365.082l-.306.066c-.137.03-.276.06-.419.084-.427.081-.765.135-1.087.175l-.175.024c-.123.017-.246.034-.367.047l-.54.056c-.166.019-.346.033-.562.044l-.537.03c-.252.012-.5.017-.744.022l-.344.008h-.021Z" transform="translate(-3618.415 -184.511)"/><path class="d" d="M3635.458,195.092l-.347-.007c-.24-.005-.487-.01-.733-.022l-.541-.031c-.209-.011-.386-.024-.55-.043l-.535-.055c-.122-.013-.242-.03-.364-.047l-.177-.024c-.317-.04-.649-.093-1.08-.175-.135-.023-.273-.053-.407-.082l-.307-.066c-.118-.026-.237-.051-.357-.08-.36-.089-.711-.178-1.056-.284-.371-.105-.734-.225-1.037-.329-.117-.039-.232-.082-.345-.125l-.169-.063c-.192-.071-.361-.136-.512-.2a20.235,20.235,0,0,1-3.837-2.059,18.021,18.021,0,0,1-1.721-1.347c-.287-.257-.55-.507-.8-.764-.142-.149-.267-.284-.383-.416l-.19-.218-.207-.252a1.814,1.814,0,0,1,.023-2.542,1.511,1.511,0,0,1,1.109-.444,3.056,3.056,0,0,1,1.467.458l.077.045.177.11c.118.071.24.142.366.212.258.149.526.292.766.419.557.29,1.073.536,1.577.753a24.84,24.84,0,0,0,6.65,1.851c.1.011.209.025.316.038.177.023.361.046.538.061l.165.016c.089.009.176.018.265.025l.434.028c.184.017.372.024.553.032l.316.014c.17.006.348.008.524.009l.34,0,.331,0c.177,0,.354,0,.53-.009.1-.006.207-.01.313-.014.18-.007.368-.015.545-.031l.442-.029c.087-.006.176-.015.265-.025l.162-.016c.18-.015.365-.038.541-.061.106-.013.211-.027.318-.039a24.82,24.82,0,0,0,6.648-1.85c.5-.216,1.017-.463,1.579-.754.236-.126.506-.27.76-.417.127-.071.249-.142.369-.214l.175-.107.081-.048a2.849,2.849,0,0,1,1.443-.477,1.545,1.545,0,0,1,1.131.464,1.811,1.811,0,0,1,.023,2.542l-.2.247-.192.221c-.121.136-.246.271-.384.416-.251.259-.512.509-.8.766a18,18,0,0,1-1.722,1.347,20.175,20.175,0,0,1-3.836,2.061c-.152.063-.319.129-.511.2l-.17.064c-.114.043-.227.086-.342.125-.306.1-.668.224-1.042.33-.34.1-.693.193-1.054.282-.118.029-.237.055-.356.08l-.308.066c-.133.029-.271.059-.41.082-.427.08-.758.134-1.077.174l-.176.024c-.123.017-.243.034-.362.047l-.539.055c-.162.019-.339.032-.549.043l-.536.03c-.249.012-.5.016-.735.022l-.347.007h-.013Z" transform="translate(-3619.069 -185.168)"/></g><g transform="translate(64.161 328.08)"><g transform="translate(0 0.194)"><path class="e" d="M3624.569,117.448c-2.3.016-4.189-2.315-4.209-5.2s1.835-5.24,4.136-5.257,4.189,2.315,4.209,5.2S3626.87,117.431,3624.569,117.448Z" transform="translate(-3620.36 -106.994)"/><g transform="translate(0.173 0.181)"><g transform="translate(0 0)"><g class="f" transform="translate(0)"><rect class="g" width="7.967" height="10.067" transform="translate(0.016 0.013)"/><ellipse class="g" cx="4.199" cy="5.422" rx="4.199" ry="5.422" transform="translate(-0.28 -0.298) rotate(-0.405)"/><ellipse class="h" cx="4.055" cy="5.235" rx="4.055" ry="5.235" transform="matrix(1, -0.007, 0.007, 1, -0.134, -0.112)"/><path class="i" d="M3621.214,112.95c-.018-2.788,1.717-5.061,3.875-5.076s3.925,2.233,3.945,5.021-1.715,5.061-3.873,5.076S3621.235,115.738,3621.214,112.95Z" transform="translate(-3621.166 -107.827)"/><path class="j" d="M3621.774,113.486c-.017-2.685,1.653-4.873,3.732-4.888s3.779,2.15,3.8,4.835-1.653,4.873-3.732,4.888S3621.8,116.171,3621.774,113.486Z" transform="translate(-3621.583 -108.364)"/><ellipse class="k" cx="3.62" cy="4.674" rx="3.62" ry="4.674" transform="matrix(1, -0.007, 0.007, 1, 0.304, 0.446)"/><ellipse class="l" cx="3.475" cy="4.487" rx="3.475" ry="4.487" transform="matrix(1, -0.007, 0.007, 1, 0.45, 0.632)"/><ellipse class="m" cx="3.331" cy="4.301" rx="3.331" ry="4.301" transform="matrix(1, -0.007, 0.007, 1, 0.596, 0.818)"/><path class="n" d="M3624.019,115.631c-.017-2.272,1.4-4.124,3.157-4.136s3.2,1.819,3.212,4.091-1.394,4.124-3.155,4.136S3624.034,117.9,3624.019,115.631Z" transform="translate(-3623.247 -110.513)"/><path class="o" d="M3624.578,116.167c-.015-2.169,1.335-3.936,3.014-3.948s3.053,1.736,3.069,3.9-1.333,3.936-3.014,3.948S3624.595,118.335,3624.578,116.167Z" transform="translate(-3623.662 -111.05)"/><path class="p" d="M3625.14,116.7c-.014-2.065,1.27-3.749,2.87-3.76s2.907,1.654,2.923,3.719-1.269,3.749-2.87,3.76S3625.156,118.768,3625.14,116.7Z" transform="translate(-3624.079 -111.587)"/><path class="q" d="M3625.7,117.239c-.013-1.962,1.207-3.561,2.726-3.572s2.763,1.571,2.777,3.533-1.207,3.561-2.725,3.572S3625.714,119.2,3625.7,117.239Z" transform="translate(-3624.495 -112.125)"/><path class="r" d="M3626.263,117.775c-.014-1.859,1.142-3.374,2.581-3.384s2.618,1.488,2.631,3.347-1.143,3.374-2.584,3.384S3626.274,119.634,3626.263,117.775Z" transform="translate(-3624.913 -112.662)"/><path class="s" d="M3626.822,118.311c-.013-1.755,1.08-3.186,2.44-3.2s2.472,1.406,2.485,3.161-1.08,3.186-2.44,3.2S3626.835,120.066,3626.822,118.311Z" transform="translate(-3625.327 -113.199)"/><path class="t" d="M3627.383,118.847c-.01-1.652,1.016-3,2.3-3.008s2.325,1.323,2.338,2.975-1.016,3-2.3,3.008S3627.4,120.5,3627.383,118.847Z" transform="translate(-3625.743 -113.736)"/><path class="u" d="M3627.944,119.383c-.011-1.549.953-2.811,2.153-2.82s2.18,1.24,2.192,2.789-.954,2.812-2.153,2.82S3627.956,120.932,3627.944,119.383Z" transform="translate(-3626.158 -114.273)"/><path class="v" d="M3628.506,119.919a2.094,2.094,0,1,1,2.046,2.6A2.379,2.379,0,0,1,3628.506,119.919Z" transform="translate(-3626.577 -114.81)"/><path class="w" d="M3629.065,120.456a1.945,1.945,0,1,1,1.9,2.417A2.211,2.211,0,0,1,3629.065,120.456Z" transform="translate(-3626.99 -115.348)"/><path class="x" d="M3629.627,120.992a1.795,1.795,0,1,1,1.754,2.232A2.039,2.039,0,0,1,3629.627,120.992Z" transform="translate(-3627.408 -115.885)"/><path class="y" d="M3630.187,121.528a1.645,1.645,0,1,1,1.608,2.046A1.87,1.87,0,0,1,3630.187,121.528Z" transform="translate(-3627.823 -116.422)"/><path class="y" d="M3630.748,122.064a1.5,1.5,0,1,1,1.462,1.859A1.7,1.7,0,0,1,3630.748,122.064Z" transform="translate(-3628.239 -116.959)"/><path class="z" d="M3631.309,122.6a1.345,1.345,0,1,1,1.314,1.674A1.53,1.53,0,0,1,3631.309,122.6Z" transform="translate(-3628.655 -117.496)"/><path class="aa" d="M3631.87,123.136a1.2,1.2,0,1,1,1.168,1.488A1.36,1.36,0,0,1,3631.87,123.136Z" transform="translate(-3629.072 -118.033)"/><path class="ab" d="M3632.43,123.672a1.047,1.047,0,1,1,1.023,1.3A1.19,1.19,0,0,1,3632.43,123.672Z" transform="translate(-3629.486 -118.57)"/><path class="ac" d="M3632.992,124.208a.9.9,0,1,1,.877,1.116A1.021,1.021,0,0,1,3632.992,124.208Z" transform="translate(-3629.904 -119.107)"/><path class="ad" d="M3633.553,124.744a.747.747,0,1,1,.731.93A.85.85,0,0,1,3633.553,124.744Z" transform="translate(-3630.32 -119.644)"/><path class="ad" d="M3634.113,125.28a.6.6,0,1,1,.587.744A.681.681,0,0,1,3634.113,125.28Z" transform="translate(-3630.734 -120.181)"/><path class="ad" d="M3634.675,125.816a.448.448,0,1,1,.438.558A.509.509,0,0,1,3634.675,125.816Z" transform="translate(-3631.152 -120.718)"/><path class="ad" d="M3635.235,126.353a.338.338,0,0,1,.285-.376.385.385,0,0,1,0,.748A.338.338,0,0,1,3635.235,126.353Z" transform="translate(-3631.567 -121.256)"/><path class="ad" d="M3635.8,126.889a.15.15,0,1,1,.147.186A.17.17,0,0,1,3635.8,126.889Z" transform="translate(-3631.983 -121.793)"/></g></g></g></g><g transform="translate(23.287 0)"><ellipse class="ae" cx="4.173" cy="5.227" rx="4.173" ry="5.227" transform="translate(0 0.059) rotate(-0.405)"/><g transform="translate(0.21 0.21)"><g transform="translate(0 0)"><g class="af" transform="translate(0)"><rect class="g" width="7.967" height="10.067" transform="translate(0.016 0.013)"/><path class="g" d="M3710.418,111.239c-.022-2.995,1.841-5.436,4.16-5.452s4.217,2.4,4.239,5.392-1.843,5.436-4.162,5.452S3710.439,114.233,3710.418,111.239Z" transform="translate(-3710.66 -106.114)"/><path class="h" d="M3710.979,111.775c-.019-2.891,1.78-5.248,4.018-5.264s4.072,2.315,4.093,5.206-1.779,5.248-4.018,5.264S3711,114.666,3710.979,111.775Z" transform="translate(-3711.075 -106.651)"/><path class="i" d="M3711.54,112.311c-.021-2.788,1.715-5.061,3.873-5.076s3.927,2.233,3.947,5.021-1.717,5.061-3.873,5.076S3711.559,115.1,3711.54,112.311Z" transform="translate(-3711.491 -107.188)"/><path class="j" d="M3712.1,112.847c-.019-2.685,1.652-4.873,3.731-4.888s3.781,2.15,3.8,4.835-1.65,4.873-3.729,4.888S3712.119,115.532,3712.1,112.847Z" transform="translate(-3711.907 -107.725)"/><path class="k" d="M3712.661,113.383c-.019-2.581,1.587-4.686,3.587-4.7s3.635,2.067,3.654,4.649-1.588,4.686-3.587,4.7S3712.681,115.964,3712.661,113.383Z" transform="translate(-3712.324 -108.262)"/><path class="l" d="M3713.222,113.919c-.017-2.478,1.525-4.5,3.445-4.512s3.489,1.984,3.506,4.463-1.524,4.5-3.443,4.512S3713.241,116.4,3713.222,113.919Z" transform="translate(-3712.74 -108.799)"/><path class="m" d="M3713.783,114.455c-.017-2.375,1.46-4.311,3.3-4.324s3.344,1.9,3.361,4.277-1.462,4.311-3.3,4.324S3713.8,116.83,3713.783,114.455Z" transform="translate(-3713.156 -109.337)"/><path class="n" d="M3714.344,114.991c-.015-2.272,1.4-4.124,3.157-4.136s3.2,1.819,3.215,4.091-1.4,4.124-3.157,4.136S3714.362,117.263,3714.344,114.991Z" transform="translate(-3713.572 -109.874)"/><path class="o" d="M3714.9,115.528c-.015-2.169,1.333-3.936,3.014-3.948s3.054,1.736,3.068,3.9-1.333,3.936-3.012,3.948S3714.92,117.7,3714.9,115.528Z" transform="translate(-3713.989 -110.411)"/><path class="p" d="M3715.466,116.064c-.016-2.065,1.269-3.749,2.869-3.76s2.908,1.654,2.923,3.719-1.271,3.749-2.869,3.76S3715.479,118.129,3715.466,116.064Z" transform="translate(-3714.404 -110.948)"/><path class="q" d="M3716.026,116.6c-.013-1.962,1.207-3.561,2.727-3.572s2.764,1.571,2.776,3.533-1.206,3.561-2.726,3.572S3716.039,118.562,3716.026,116.6Z" transform="translate(-3714.82 -111.485)"/><path class="r" d="M3716.586,117.136c-.012-1.859,1.144-3.374,2.583-3.384s2.618,1.488,2.631,3.347-1.143,3.374-2.582,3.384S3716.6,118.995,3716.586,117.136Z" transform="translate(-3715.236 -112.023)"/><path class="s" d="M3717.147,117.672c-.012-1.756,1.08-3.187,2.439-3.2s2.473,1.406,2.483,3.161-1.079,3.186-2.437,3.2S3717.159,119.427,3717.147,117.672Z" transform="translate(-3715.652 -112.56)"/><path class="t" d="M3717.708,118.208c-.013-1.652,1.015-3,2.3-3.008s2.326,1.323,2.337,2.975-1.014,3-2.3,3.008S3717.719,119.86,3717.708,118.208Z" transform="translate(-3716.068 -113.097)"/><path class="u" d="M3718.269,118.744c-.011-1.549.953-2.812,2.153-2.82s2.181,1.24,2.192,2.789-.953,2.812-2.151,2.82S3718.28,120.293,3718.269,118.744Z" transform="translate(-3716.483 -113.634)"/><path class="v" d="M3718.832,119.28a2.093,2.093,0,1,1,2.045,2.6A2.378,2.378,0,0,1,3718.832,119.28Z" transform="translate(-3716.902 -114.171)"/><path class="w" d="M3719.39,119.816a1.945,1.945,0,1,1,1.9,2.417A2.211,2.211,0,0,1,3719.39,119.816Z" transform="translate(-3717.314 -114.708)"/><path class="x" d="M3719.951,120.352a1.795,1.795,0,1,1,1.755,2.231A2.041,2.041,0,0,1,3719.951,120.352Z" transform="translate(-3717.732 -115.245)"/><path class="y" d="M3720.512,120.888a1.645,1.645,0,1,1,1.608,2.045A1.872,1.872,0,0,1,3720.512,120.888Z" transform="translate(-3718.148 -115.782)"/><path class="y" d="M3721.075,121.424a1.5,1.5,0,1,1,1.46,1.859A1.7,1.7,0,0,1,3721.075,121.424Z" transform="translate(-3718.566 -116.319)"/><path class="z" d="M3721.633,121.96a1.347,1.347,0,1,1,1.316,1.674A1.532,1.532,0,0,1,3721.633,121.96Z" transform="translate(-3718.979 -116.856)"/><path class="aa" d="M3722.194,122.5a1.2,1.2,0,1,1,1.17,1.488A1.361,1.361,0,0,1,3722.194,122.5Z" transform="translate(-3719.396 -117.394)"/><path class="ab" d="M3722.756,123.033a1.047,1.047,0,1,1,1.022,1.3A1.189,1.189,0,0,1,3722.756,123.033Z" transform="translate(-3719.812 -117.931)"/><path class="ac" d="M3723.317,123.569a.9.9,0,1,1,.878,1.116A1.02,1.02,0,0,1,3723.317,123.569Z" transform="translate(-3720.228 -118.468)"/><path class="ad" d="M3723.877,124.1a.748.748,0,1,1,.731.93A.85.85,0,0,1,3723.877,124.1Z" transform="translate(-3720.644 -119.005)"/><path class="ad" d="M3724.438,124.641a.6.6,0,1,1,.585.744A.681.681,0,0,1,3724.438,124.641Z" transform="translate(-3721.06 -119.542)"/><path class="ad" d="M3725,125.177a.449.449,0,1,1,.439.558A.512.512,0,0,1,3725,125.177Z" transform="translate(-3721.475 -120.079)"/><path class="ad" d="M3725.56,125.713a.3.3,0,1,1,.293.372A.342.342,0,0,1,3725.56,125.713Z" transform="translate(-3721.892 -120.616)"/><path class="ad" d="M3726.122,126.249a.168.168,0,0,1,.143-.188.193.193,0,1,1-.143.188Z" transform="translate(-3722.31 -121.153)"/></g></g></g></g></g></g></svg>