<svg xmlns="http://www.w3.org/2000/svg" width="38" height="38" viewBox="0 0 38 38"><defs><style>.a{fill:#f2f7ff;}.b{fill:#253858;}.c{fill:#fff;}</style></defs><g transform="translate(-472 -141)"><g transform="translate(440 -76)"><rect class="a" width="38" height="38" rx="8" transform="translate(32 217)"/></g><g transform="translate(336.169 -12.359)"><g transform="translate(148.408 170.292)"><path class="b" d="M220.556,300.517a5.546,5.546,0,0,1-2.587.717,3.845,3.845,0,0,1-1.194-.185c.226,2.785,1.832,4.944,3.781,4.944s3.555-2.159,3.781-4.945a3.842,3.842,0,0,1-1.194.185A5.544,5.544,0,0,1,220.556,300.517Zm0,5c-2.245,0-2.558-3.183-2.527-3.407s.07-.681.912-.715a2.153,2.153,0,0,1,1.387.338.267.267,0,0,0-.04.139v1.88a.268.268,0,1,0,.536,0v-1.88a.266.266,0,0,0-.04-.139,2.153,2.153,0,0,1,1.387-.338c.842.034.882.491.912.715S222.8,305.513,220.556,305.513Z" transform="translate(-213.938 -293.615)"/><path class="b" d="M204.406,240.109a.384.384,0,0,0-.718.274c1.1,2.881.742,4.813-1.087,5.908a2.862,2.862,0,0,1-.337.172,4.116,4.116,0,0,1-3.422-.366v-2.214a.384.384,0,1,0-.769,0V246.1a4.093,4.093,0,0,1-3.422.366,2.874,2.874,0,0,1-.337-.172c-1.829-1.095-2.185-3.027-1.087-5.908a.384.384,0,0,0-.718-.274c-1.234,3.241-.76,5.542,1.411,6.841a3.7,3.7,0,0,0,.757.345,3.845,3.845,0,0,0,1.194.185,5.546,5.546,0,0,0,2.587-.717,5.544,5.544,0,0,0,2.587.717,3.842,3.842,0,0,0,1.194-.185,3.693,3.693,0,0,0,.757-.345C205.166,245.651,205.641,243.349,204.406,240.109Z" transform="translate(-191.839 -239.861)"/><path d="M272.512,278.739a.3.3,0,1,0-.3-.3A.3.3,0,0,0,272.512,278.739Z" transform="translate(-263.07 -273.79)"/><path d="M264.559,282.751a.3.3,0,1,0-.3-.3A.3.3,0,0,0,264.559,282.751Z" transform="translate(-256.022 -277.345)"/><path d="M272.16,287.185a.3.3,0,1,0-.3-.3A.3.3,0,0,0,272.16,287.185Z" transform="translate(-262.758 -281.275)"/><path d="M279.746,282.454a.3.3,0,0,0,.3.3l.016,0a.3.3,0,1,0-.312-.295Z" transform="translate(-269.743 -277.345)"/><path d="M222.873,278.739a.3.3,0,1,0-.3-.3A.3.3,0,0,0,222.873,278.739Z" transform="translate(-219.079 -273.79)"/><path d="M230.825,282.751a.3.3,0,1,0-.3-.3A.3.3,0,0,0,230.825,282.751Z" transform="translate(-226.127 -277.345)"/><path d="M223.225,286.592a.3.3,0,1,0,.3.3A.3.3,0,0,0,223.225,286.592Z" transform="translate(-219.391 -281.275)"/><path d="M215.64,282.454a.3.3,0,1,0-.312.295l.015,0A.3.3,0,0,0,215.64,282.454Z" transform="translate(-212.406 -277.345)"/><path class="c" d="M231.916,308.176a2.153,2.153,0,0,0-1.387.338.266.266,0,0,1,.04.139v1.88a.268.268,0,0,1-.536,0v-1.88a.267.267,0,0,1,.04-.139,2.153,2.153,0,0,0-1.387-.338c-.842.034-.882.491-.912.715s.282,3.407,2.527,3.407,2.558-3.183,2.528-3.407S232.758,308.21,231.916,308.176Z" transform="translate(-223.683 -300.4)"/></g><path class="b" d="M151.307,162.135c.491-1.942-7.893-.051-8.458,3.627-.234,1.521,1.883,2.842,2.41,4.493.363,1.135.727,1.459,1.029,1.287,1.03-.585.959-5.522,2.4-7.624A3.733,3.733,0,0,1,151.307,162.135Z"/><path class="b" d="M282.515,162.135c-.491-1.942,7.893-.051,8.458,3.627.234,1.521-1.883,2.842-2.41,4.493-.363,1.135-.727,1.459-1.029,1.287-1.03-.585-.959-5.522-2.4-7.624A3.733,3.733,0,0,0,282.515,162.135Z" transform="translate(-123.771)"/><path class="b" d="M232.219,253.3l-1.767-1.49a.748.748,0,0,1-.031-1.131l.131-.122a1.263,1.263,0,0,1,.863-.336h2.037a1.263,1.263,0,0,1,.863.336l.131.122a.748.748,0,0,1-.031,1.131l-1.767,1.49" transform="translate(-77.408 -78.753)"/><g transform="translate(151.095 166.471)"><path class="b" d="M216.887,207a.714.714,0,1,1-.714-.714A.714.714,0,0,1,216.887,207Z" transform="translate(-215.46 -206.286)"/><path class="b" d="M273.426,207a.714.714,0,1,1-.714-.714A.714.714,0,0,1,273.426,207Z" transform="translate(-265.565 -206.286)"/></g></g></g></svg>