<svg xmlns="http://www.w3.org/2000/svg" xmlns:xlink="http://www.w3.org/1999/xlink" width="118.07" height="121.92" viewBox="0 0 118.07 121.92"><defs><style>.a{fill:none;stroke:#707070;}.b{fill:#f2f4f6;}.c{clip-path:url(#a);}.d{fill:#fce1d0;}.d,.e{fill-rule:evenodd;}.e{fill:#6554c0;opacity:0.201;}.f{fill:#3e240f;}</style><clipPath id="a"><path class="a" d="M498.924-2934.4l-22.776,29.359-18.275,55.956,32.841,18.92,49.1-7.429,11.133-4.32v-18.615l-3.817-71.135L526-2952.086Z" transform="translate(0 0)"/></clipPath></defs><g transform="translate(-455.93 3130.46)"><circle class="b" cx="53.5" cy="53.5" r="53.5" transform="translate(467 -3130.46)"/><g class="c" transform="translate(-1.943 -178.375)"><g transform="translate(478.981 -2986.147)"><path class="d" d="M284.384,397.626a1.127,1.127,0,1,1-1.785-1.378,6.357,6.357,0,0,1,4.817-2.864,7.643,7.643,0,0,1,5.2,2.31,1.127,1.127,0,0,1-1.493,1.688,5.57,5.57,0,0,0-3.645-1.746,4.261,4.261,0,0,0-3.095,1.99m25.746-1.378a1.127,1.127,0,1,1-1.785,1.378,4.26,4.26,0,0,0-3.095-1.99,5.57,5.57,0,0,0-3.644,1.746,1.127,1.127,0,0,1-1.493-1.688,7.64,7.64,0,0,1,5.2-2.31A6.357,6.357,0,0,1,310.13,396.248Zm-13.807,11.234c1.425,0,2.85-1.56,2.137-2.34s-3.563-.78-4.275,0S294.9,407.482,296.323,407.482ZM279.9,377.99c.085,3.072.374,13.68.66,25.854l5.015-.483a1.127,1.127,0,0,1,.212,2.244l-5.175.5.089,3.905,5.048-1.549a1.127,1.127,0,1,1,.663,2.155l-5.66,1.737c.4,18.65.693,37.736.185,37.746-.875.017,28.019-2.674,34.953-3.319-.254-11.02-.5-22.432-.743-33.852l-7.534-2.312a1.127,1.127,0,1,1,.663-2.155l6.82,2.093-.092-4.3-6.767-.651a1.127,1.127,0,0,1,.213-2.244l6.506.626c-.208-9.672-.418-19.3-.637-28.69-6.021,5.773-12.056,8.532-18.1,8.655C290.71,384.063,285.274,381.98,279.9,377.99Z" transform="translate(-252.667 -315.117)"/><path class="e" d="M335.727,234.431c-.868,13.643,13.009,21.216,30.261,27.4l.863,94.154,8.828-1.149h0c-.111-.072-.22-.145-.328-.218l-.016-.011q-.651-.444-1.235-.918h0c-.1-.08-.2-.161-.291-.242l-.007-.006q-.14-.119-.276-.24l-.015-.013q-.263-.234-.511-.473l-.015-.015,0,0q-.126-.122-.247-.245l-.007-.008c-.085-.086-.168-.172-.251-.259a14.13,14.13,0,0,1-3.951-10.652,17.013,17.013,0,0,1,4.483-10.35c4.758-5.273,12.945-8.4,22.81-5.625l.016,0,.017,0h0l.012,0,.017.006.007,0,.025.009.011,0h0l.016.006.015.006h0l.015.007.016.007h0l.012.005.016.007.007,0,.008,0,.016.007.01.005.005,0,.015.008.014.007h0l.014.008.015.008h0l.013.007.014.008.005,0,.009.006.014.008.008.005.006,0,.014.008.012.008h0l.013.009.014.009h0l.012.008.013.01,0,0,.009.007.013.01.008.005.005,0,.013.01.01.008,0,0,.013.01.012.011h0l.012.01.012.011.012.011.012.011.012.011.012.011.009.008,0,0,.012.012.011.011.011.012.012.012,0,0,.009.009.01.012.006.006.005.007.01.012.007.008,0,0,.01.013.01.012h0l.01.013.01.013,0,0,.008.011.019.026.009.013.006.008,0,0,.009.013a1.5,1.5,0,0,1-1.654,2.29,22.643,22.643,0,0,0-8.481-.809c-9.72,2.878-12.463,10.116-12.662,13.709-.2,3.7,1,12.51,18.447,14.941a72.552,72.552,0,0,0,14.038-.985,1.5,1.5,0,0,1,.575.02c2.522-1.809,6.013-4.633,7.941-6.216q-1.351-10.436-2.656-21.158l-.038-.309-.041-.337-.079-.646-.005-.044-.074-.6-.051-.424-.028-.223-.078-.648-.019-.157-.059-.49-.065-.539-.013-.109-.078-.649-.033-.272-.045-.377-.078-.649v0l-.077-.645-.047-.387-.032-.264-.078-.65-.014-.119-.064-.532-.06-.5-.018-.149-.078-.652-.028-.234-.05-.417-.074-.618,0-.034-.077-.652-.042-.349-.036-.3-.078-.653-.009-.08-.068-.573-.055-.465L410.4,313l-.078-.654-.024-.2-.054-.458-.069-.58-.009-.074-.078-.654-.037-.311-.04-.343-.078-.655-.005-.042-.072-.613-.05-.427-.027-.229-.077-.655-.019-.157-.059-.5-.064-.542-.013-.113-.077-.656-.032-.273-.045-.383-.077-.657v0l-.077-.654-.046-.388-.031-.268-.077-.657-.014-.118-.063-.539-.059-.5-.018-.152-.077-.657-.027-.234-.05-.423-.073-.62,0-.037-.077-.658-.041-.349-.036-.308-.077-.658-.01-.079-.067-.579-.055-.465-.023-.192-.077-.658-.023-.2-.054-.463-.068-.582-.009-.077-.077-.658-.036-.31-.041-.348-.077-.658,0-.04-.072-.619-.05-.426-.027-.232-.077-.658-.018-.156-.059-.5-.064-.542-.013-.116-.077-.659-.032-.271-.045-.387-.077-.658c-2.479-21.243-4.959-42.487-7.515-62.276L389.7,236.445h0a1.5,1.5,0,0,1-1.506.531l-46.017-10.419a12.213,12.213,0,0,1-3.422,6.077l-.041.036-.038.034,0,0-.041.036-.036.031-.005,0-.042.036-.034.029-.008.007-.042.035-.032.026-.011.008-.042.034-.029.024-.013.011-.043.034-.027.021-.016.013-.043.033-.025.019-.019.015-.043.033-.022.016-.022.016-.044.032-.02.014-.025.018-.045.032-.017.012-.028.02-.045.032-.013.009-.032.021-.045.031-.012.008-.034.023-.046.03-.008.005-.038.024-.046.029-.006,0-.078.05-.009.005,0,0-.044.028-.047.028-.048.028-.044.027h0l-.048.028-.042.024-.006,0-.048.027-.039.022-.009,0-.049.026-.036.02-.012.007-.049.026-.033.018-.016.008-.049.025-.031.016-.019.009-.05.025-.028.014-.022.011-.05.024-.025.012-.025.012-.051.024-.022.01-.028.013-.051.024-.019.009-.032.015-.052.023-.016.007-.036.015-.051.022-.053.021-.052.022-.01,0-.043.017-.053.021-.007,0-.046.019-.053.021h0l-.05.019-.053.02-.054.02-.051.018Z" transform="translate(-288.216 -218.578)"/><path class="f" d="M312.418,316.37a1.5,1.5,0,0,1-.813,2.9c-8.611-2.423-15.689.23-19.759,4.741a14,14,0,0,0-3.718,8.5,11.18,11.18,0,0,0,3.138,8.425c4.645,4.921,14.588,7.894,31.681,5.188a1.5,1.5,0,1,1,.471,2.969c-18.245,2.888-29.093-.534-34.343-6.095a14.13,14.13,0,0,1-3.951-10.652A17.013,17.013,0,0,1,289.608,322c4.758-5.274,12.945-8.4,22.81-5.625M236.536,291.9a1.127,1.127,0,0,1-1.785-1.378,6.357,6.357,0,0,1,4.817-2.864,7.643,7.643,0,0,1,5.2,2.31,1.127,1.127,0,0,1-1.493,1.688,5.57,5.57,0,0,0-3.644-1.746A4.261,4.261,0,0,0,236.536,291.9Zm25.746-1.378A1.127,1.127,0,1,1,260.5,291.9a4.26,4.26,0,0,0-3.095-1.99,5.57,5.57,0,0,0-3.644,1.746,1.127,1.127,0,0,1-1.493-1.688,7.641,7.641,0,0,1,5.2-2.31A6.357,6.357,0,0,1,262.282,290.526ZM248.475,301.76c1.425,0,2.85-1.56,2.137-2.34s-3.563-.78-4.275,0S247.05,301.76,248.475,301.76Zm7.367-85.051-6.054-1.37a32.608,32.608,0,0,0-1.205,7.521,6.991,6.991,0,0,0,4.76-1.646A9.213,9.213,0,0,0,255.842,216.708Zm34.288,16.344a1.129,1.129,0,1,1-2.191.547,4.26,4.26,0,0,0-2.035-3.064,5.573,5.573,0,0,0-4.038.135,1.127,1.127,0,0,1-.689-2.147,7.644,7.644,0,0,1,5.69-.029A6.36,6.36,0,0,1,290.13,233.053ZM218.66,324.165a1.505,1.505,0,1,1-.212,3,10.274,10.274,0,0,0-9.388,4.922,8.071,8.071,0,0,0-1.237,4.2,6.639,6.639,0,0,0,1.462,4.108c2.572,3.3,8.622,5.778,19.839,5.5l-.76-37.868-3.229.991a1.128,1.128,0,0,1-.663-2.156l3.845-1.18-.1-4.861-4.107.4a1.127,1.127,0,0,1-.213-2.244l4.275-.411-.616-30.71a1.5,1.5,0,0,1,2.519-1.135v0c6.1,5.629,12.183,8.638,18.235,8.516s12.195-3.379,18.465-10.283a1.5,1.5,0,0,1,2.617,1.068c.249,10.532.489,21.5.726,32.543l4.314.415a1.127,1.127,0,0,1-.213,2.244l-4.053-.39.106,4.935,3.586,1.1a1.128,1.128,0,0,1-.663,2.156l-2.873-.882c.269,12.569.539,25.123.824,37.274,1.087-.052,2.207-.075,3.327-.1,1.1-.023,2.205-.046,3.336-.106-.129-14.64-.258-29.9-.386-45.158-.129-15.368-.26-30.736-.389-45.471-11.388-3.53-20.333-8.278-25.734-14.787-.028-.033-.054-.068-.079-.1-5.626-6.845-7.347-15.508-3.921-26.567a1.5,1.5,0,0,1,1.805-1.016l8.8,1.992.028.005c.043.008.086.018.127.03l46.474,10.522,11.648-14.687a1.5,1.5,0,0,1,2.678.816c2.775,21.219,5.375,43.5,7.976,65.777,2.571,22.028,5.143,44.055,7.8,64.462,5.437-.217,9.819-1.345,13.147-3.206a14.956,14.956,0,0,0,5.92-5.765,16.133,16.133,0,0,0,1.9-8.142c-.059-4.718-1.715-10.16-4.979-15.993a1.5,1.5,0,0,1,2.627-1.461c3.509,6.272,5.29,12.2,5.355,17.419a19.09,19.09,0,0,1-2.278,9.638,17.93,17.93,0,0,1-7.086,6.931c-4.006,2.242-9.3,3.53-15.853,3.617a1.5,1.5,0,0,1-1.559-1.306c-2.778-21.241-5.382-43.547-7.985-65.851-2.479-21.243-4.959-42.487-7.515-62.276l-10.025,12.64h0a1.5,1.5,0,0,1-1.507.531L258.78,217.374a12.214,12.214,0,0,1-3.422,6.077,9.839,9.839,0,0,1-6.7,2.414,21.248,21.248,0,0,0,4.892,11.92c.025.026.05.054.074.082,5.153,6.21,13.991,10.747,25.335,14.145v0a1.5,1.5,0,0,1,1.073,1.428c.133,15.072.267,30.825.4,46.578.132,15.71.266,31.42.4,46.454v.012a1.508,1.508,0,0,1-1.378,1.625c-1.565.13-3.24.165-4.914.2-1.55.032-3.1.064-4.727.2v0c-.029,0-.058,0-.088,0a1.5,1.5,0,0,1-1.537-1.466c-.3-12.846-.593-26.339-.883-39.841l-7.534-2.312a1.128,1.128,0,1,1,.663-2.155l6.82,2.093-.092-4.3-6.767-.651a1.127,1.127,0,0,1,.213-2.244l6.506.626c-.208-9.672-.418-19.3-.637-28.69-6.021,5.773-12.056,8.532-18.1,8.655-6,.121-11.909-2.358-17.743-7.067l.544,27.106,6.557-.63a1.127,1.127,0,1,1,.212,2.244l-6.724.646.085,4.233,6.6-2.026a1.128,1.128,0,1,1,.663,2.155l-7.216,2.215.806,40.151v.021a1.5,1.5,0,0,1-1.437,1.567c-13.3.593-20.59-2.485-23.8-6.6a9.6,9.6,0,0,1-2.1-5.945,11.065,11.065,0,0,1,1.672-5.763A13.313,13.313,0,0,1,218.66,324.165Z" transform="translate(-204.819 -209.395)"/></g></g></g></svg>