<svg xmlns="http://www.w3.org/2000/svg" width="178" height="29.292" viewBox="0 0 178 29.292"><defs><style>.a{fill:#0065ff;}.b{fill:#253858;}.c{fill:#fff;}</style></defs><path class="a" d="M315,493.877c.436,0,.872.014,1.308.014h3.038c.177,0,.232.055.232.232-.014.627,0,1.253,0,1.88v.259c.014.014.041.014.055.027.041-.068.1-.123.136-.191a5.384,5.384,0,0,1,2.752-2.248,4.251,4.251,0,0,1,5.6,2.766,9.8,9.8,0,0,1,.518,4.155,8.887,8.887,0,0,1-1.09,3.937,4.567,4.567,0,0,1-4.619,2.425,4.879,4.879,0,0,1-2.984-1.417,2.873,2.873,0,0,1-.259-.313l-.082.041V511.6h-2.316c0-.068-.014-.123-.014-.191,0-4.864.014-9.728.014-14.591a7.518,7.518,0,0,0-.082-1.1,1.11,1.11,0,0,0-1.022-1.022c-.3-.054-.6-.082-.913-.109-.163-.014-.2-.068-.2-.218s-.027-.3-.041-.449C315,493.9,315,493.89,315,493.877Zm4.578,6.894c0,1.172,0,2.33.014,3.5a.479.479,0,0,0,.163.341,6.35,6.35,0,0,0,2.9,1.281,2.563,2.563,0,0,0,2.248-.654,3.633,3.633,0,0,0,.967-1.744,11.208,11.208,0,0,0,.177-4.986,5.9,5.9,0,0,0-.94-2.4,2.33,2.33,0,0,0-2.752-1.008,5.007,5.007,0,0,0-2.711,1.975.542.542,0,0,0-.068.3C319.564,498.5,319.578,499.64,319.578,500.771Z" transform="translate(-315 -484.858)"/><path class="b" d="M812,452.908V452.2h4.564v8.311c.313-.381.586-.763.913-1.09a4.888,4.888,0,0,1,5.123-1.376,4.347,4.347,0,0,1,2.629,2.371,7.614,7.614,0,0,1,.763,2.984,10.369,10.369,0,0,1-.613,4.55,5.622,5.622,0,0,1-2.343,2.861,5.2,5.2,0,0,1-5.913-.613c-.164-.136-.3-.286-.463-.422a.343.343,0,0,0-.191-.082c-.027,0-.068.1-.082.164-.082.422-.164.858-.245,1.281-.014.068-.1.164-.136.164-.6.014-1.185.014-1.812.014v-16.09c0-.5-.068-1.008-.109-1.512a.582.582,0,0,0-.5-.545c-.436-.082-.872-.15-1.308-.218A1.639,1.639,0,0,0,812,452.908Zm4.578,12.139v3.5a.328.328,0,0,0,.109.259,6.438,6.438,0,0,0,2.834,1.267,2.936,2.936,0,0,0,3.542-2.044,8.071,8.071,0,0,0,.422-2.6,12.173,12.173,0,0,0-.327-3.583,3.785,3.785,0,0,0-1.022-1.853,2.869,2.869,0,0,0-2.63-.586,4.8,4.8,0,0,0-2.752,1.744.677.677,0,0,0-.177.5Z" transform="translate(-744.288 -449.107)"/><path class="b" d="M931.84,505.922c.014.082.014.177.027.259.055.627.055.64-.558.763a5.178,5.178,0,0,1-1.117.109,2.015,2.015,0,0,1-1.839-1.526q-.081-.245-.163-.531c-.259.218-.491.45-.749.654a6.072,6.072,0,0,1-2.725,1.362,3.874,3.874,0,0,1-4.142-1.839,3.794,3.794,0,0,1,1.471-5.1,7.078,7.078,0,0,1,2.82-.858c.831-.082,1.662-.1,2.493-.15h.313a11.1,11.1,0,0,0-.231-3.229,1.965,1.965,0,0,0-2.084-1.471,4.425,4.425,0,0,0-1.2.2,1.958,1.958,0,0,0-1.4,1.853c-.014.163-.027.313-.027.49h-1.608v-2.18a.331.331,0,0,1,.123-.245,11.083,11.083,0,0,1,5.177-1.022,4.533,4.533,0,0,1,2.016.572,3.048,3.048,0,0,1,1.5,2.371,9.229,9.229,0,0,1,.082,1.226c.014,1.867-.014,3.733.014,5.6a10.386,10.386,0,0,0,.164,1.839.967.967,0,0,0,.967.913A3.131,3.131,0,0,0,931.84,505.922Zm-4.2-6.131a7.389,7.389,0,0,0-3.229.5,2.881,2.881,0,0,0-1.8,2.957,2.53,2.53,0,0,0,2.9,2.384,5.213,5.213,0,0,0,1.962-.831.323.323,0,0,0,.164-.313v-4.7Z" transform="translate(-837.683 -484.736)"/><path class="b" d="M1213.312,496.864h-1.58a.9.9,0,0,1-.014-.191v-2a.331.331,0,0,1,.123-.245,10.746,10.746,0,0,1,5.177-1.008,5.81,5.81,0,0,1,1.431.3,3.086,3.086,0,0,1,2.1,2.67,7.392,7.392,0,0,1,.055.954c0,1.975-.013,3.951.013,5.94a8.655,8.655,0,0,0,.163,1.676,1.059,1.059,0,0,0,1.458.926c.068-.014.123-.027.218-.041.027.259.054.518.068.763a.2.2,0,0,1-.1.136,3.718,3.718,0,0,1-1.962.2,1.994,1.994,0,0,1-1.444-1.322c-.082-.218-.15-.436-.231-.681-.246.218-.478.436-.722.627a5.738,5.738,0,0,1-2.752,1.376,3.842,3.842,0,0,1-3.991-1.58,3.771,3.771,0,0,1,1.4-5.4,6.852,6.852,0,0,1,2.738-.8c.845-.082,1.7-.1,2.548-.15h.2c.027-.027.041-.041.041-.055-.014-.831.014-1.676-.068-2.507a2.174,2.174,0,0,0-1.172-1.921,2.7,2.7,0,0,0-2.111-.068c-1.213.422-1.485,1.022-1.567,2.234A.32.32,0,0,0,1213.312,496.864Zm4.918,2.875a7.547,7.547,0,0,0-2.97.409,2.937,2.937,0,0,0-2.03,2.875,2.555,2.555,0,0,0,2.929,2.561,5.7,5.7,0,0,0,1.921-.8.331.331,0,0,0,.177-.327V500A1.347,1.347,0,0,1,1218.23,499.739Z" transform="translate(-1088.678 -484.684)"/><path class="b" d="M1120.059,499.082a11.264,11.264,0,0,0-.231-3.243,2.035,2.035,0,0,0-2.085-1.458,3.263,3.263,0,0,0-1.553.368,1.85,1.85,0,0,0-1.008,1.485c-.027.232-.054.463-.068.708h-1.553a.708.708,0,0,1-.027-.15v-2.057a.3.3,0,0,1,.136-.232,11.351,11.351,0,0,1,3.951-1.008,7.352,7.352,0,0,1,2.248.177,3.191,3.191,0,0,1,2.493,2.97c.027.354.041.722.041,1.076.014,2.071,0,4.155.027,6.226a5.818,5.818,0,0,0,.136,1.09,1.078,1.078,0,0,0,1.4.94c.082-.014.164-.027.286-.054.027.286.054.572.082.872a3.355,3.355,0,0,1-2.384.136,2.429,2.429,0,0,1-1.349-1.907c-.368.313-.722.613-1.09.9a5.324,5.324,0,0,1-2.834,1.158,3.727,3.727,0,0,1-4.088-2.97,3.792,3.792,0,0,1,2.275-4.251,8.236,8.236,0,0,1,2.793-.681c.722-.055,1.458-.068,2.193-.1A1,1,0,0,0,1120.059,499.082Zm-.014.736a7.387,7.387,0,0,0-3.134.477,2.9,2.9,0,0,0-1.88,2.861,2.548,2.548,0,0,0,2.916,2.52,5.278,5.278,0,0,0,1.894-.79.378.378,0,0,0,.2-.368c-.014-1.485,0-2.957,0-4.442Z" transform="translate(-1003.873 -484.763)"/><path class="a" d="M429.35,507.2a5.915,5.915,0,0,1-6.049-4.946,7.711,7.711,0,0,1,.967-5.94,5.573,5.573,0,0,1,4.319-2.6,6.161,6.161,0,0,1,3.924.777,6.028,6.028,0,0,1,2.793,3.883,7.665,7.665,0,0,1-.763,5.981,5.553,5.553,0,0,1-4.278,2.82l-.259.041C429.786,507.2,429.568,507.2,429.35,507.2Zm3.8-7.016c-.041-.327-.068-.913-.164-1.485a6.6,6.6,0,0,0-1.267-3.133,2.892,2.892,0,0,0-4.155-.613,4.442,4.442,0,0,0-1.349,1.88,9.872,9.872,0,0,0-.463,5.749,6.256,6.256,0,0,0,1.335,2.929,2.9,2.9,0,0,0,3.788.613,4.033,4.033,0,0,0,1.376-1.608A9.419,9.419,0,0,0,433.151,500.179Z" transform="translate(-408.369 -484.92)"/><path class="b" d="M1024.295,507.739h8.516v.885h-11.349a1.57,1.57,0,0,1,.231-1.09c2.657-3.665,5.286-7.357,7.929-11.036l.109-.164h-5.191c-.327,0-.654.055-.981.068a.429.429,0,0,0-.422.4,4.212,4.212,0,0,0-.054.722c-.014.3,0,.586,0,.9H1021.8V495.6h10.682a1.464,1.464,0,0,1-.259,1.1c-2.616,3.6-5.191,7.221-7.793,10.831A1.034,1.034,0,0,1,1024.295,507.739Z" transform="translate(-925.207 -486.594)"/><path class="b" d="M1303.392,494.413v-.668h4.577V496.1c1.2-1.839,2.739-2.957,5.055-2.575v3.583h-1.295c-.041-.354-.081-.722-.15-1.076-.1-.572-.191-.654-.776-.64a3.146,3.146,0,0,0-2.479,1.362,1.615,1.615,0,0,0-.368,1.076c.027,1.935,0,3.856.013,5.79,0,.477.055.967.082,1.444a.8.8,0,0,0,.722.8c.422.068.845.1,1.267.15.136.014.286.014.436.027v.722h-7.1a4.817,4.817,0,0,1,.014-.627c0-.055.123-.109.2-.123.4-.054.79-.1,1.185-.15a.787.787,0,0,0,.736-.777c.027-.45.082-.9.082-1.349.014-2.33.014-4.646,0-6.976,0-.49-.068-.995-.109-1.485a.624.624,0,0,0-.531-.586C1304.455,494.6,1303.937,494.522,1303.392,494.413Z" transform="translate(-1168.717 -484.74)"/><path class="a" d="M513.6,452.854v-.64c.1,0,.164-.014.245-.014h3.978c.232,0,.272.082.272.286q0,4.353.027,8.706c.014,3.188.014,6.362.027,9.551,0,.354,0,.354-.354.354h-2.139c0-.1-.014-.177-.014-.245.014-1.758.014-3.5.027-5.259.014-1.253.041-2.507.055-3.76.027-2.343.055-4.687.068-7.044a4.773,4.773,0,0,0-.1-.886,1.027,1.027,0,0,0-.845-.858C514.445,452.963,514.022,452.922,513.6,452.854Z" transform="translate(-486.542 -449.107)"/><path class="a" d="M713.954,495.8c-.259.5-.531.967-.749,1.444-1.294,2.834-2.575,5.668-3.869,8.5-.94,2.057-1.866,4.128-2.807,6.185a2.221,2.221,0,0,1-1.73,1.485,8.769,8.769,0,0,1-1.035.055c-.681,0-1.362-.027-2.044-.041a4.036,4.036,0,0,1-.422-.041c-.1-.381-.068-.422.286-.409.45.014.9.041,1.349.068a4.025,4.025,0,0,0,2.112-.368,1.861,1.861,0,0,0,.926-.9c.259-.613.491-1.24.722-1.853.123-.3.232-.613.368-.913a.425.425,0,0,0,0-.422c-1.349-3.229-2.7-6.471-4.046-9.7-.177-.422-.341-.858-.531-1.267A1.776,1.776,0,0,0,701,496.508c-.054,0-.1-.1-.136-.15-.014-.013,0-.027,0-.041.014-.6-.068-.491.477-.491,1.1-.013,2.207,0,3.311,0h.3c0,.3.014.559,0,.831a3.18,3.18,0,0,0,.3,1.5q1.594,3.781,3.161,7.575c.027.068.068.136.109.245.041-.068.082-.1.1-.136,1.076-2.439,2.166-4.864,3.215-7.316.341-.8.572-1.648.845-2.48.055-.177.136-.218.313-.218C713.3,495.814,713.614,495.8,713.954,495.8Z" transform="translate(-648.286 -486.767)"/><path class="a" d="M627.515,505.65c0,.286.014.545,0,.8a.266.266,0,0,1-.123.191,8.363,8.363,0,0,1-5.49.4,5.8,5.8,0,0,1-3.883-3.76,7.508,7.508,0,0,1,.627-6.88,5.5,5.5,0,0,1,4.305-2.575,13.334,13.334,0,0,1,4.4.491.188.188,0,0,1,.163.218v2.684c0,.163-.055.218-.218.2-.327-.014-.64-.014-.967,0-.191.014-.245-.054-.259-.245a5.434,5.434,0,0,0-.164-1.049,2.057,2.057,0,0,0-2.425-1.621,3.343,3.343,0,0,0-2.888,2.057,7.089,7.089,0,0,0-.681,2.643,9.765,9.765,0,0,0,.45,3.965,4.083,4.083,0,0,0,3.3,2.984,6.558,6.558,0,0,0,3.542-.382A2.147,2.147,0,0,1,627.515,505.65Z" transform="translate(-576.261 -485.023)"/><path class="a" d="M570.2,496.554V495.9h4.5q.061,6.458.109,12.929h-2.493v-.586c.014-1.839.041-3.678.055-5.518.014-1.39.027-2.766.027-4.155a4.566,4.566,0,0,0-.082-.858,1.149,1.149,0,0,0-1.049-1.035c-.177-.027-.354-.054-.518-.082S570.4,496.581,570.2,496.554Z" transform="translate(-535.431 -486.854)"/><path class="a" d="M588.862,461.2v2.248H586.6V461.2Z" transform="translate(-549.597 -456.881)"/><path class="a" d="M1425.82,450.11a14.21,14.21,0,1,1-14.21-14.21A14.211,14.211,0,0,1,1425.82,450.11Z" transform="translate(-1249.932 -435.028)"/><g transform="translate(152.072 9.421)"><path class="c" d="M1435.688,546.047l.968-.259a2.516,2.516,0,0,1-.164,1.8,2.365,2.365,0,0,1-1.295,1.158,2.539,2.539,0,0,1-2.111.014,3.255,3.255,0,0,1-1.553-1.826,4.051,4.051,0,0,1-.341-1.676,2.19,2.19,0,0,1,.49-1.363,2.885,2.885,0,0,1,1.172-.872,2.438,2.438,0,0,1,1.649-.15,2.246,2.246,0,0,1,1.253.981l-.845.518a1.612,1.612,0,0,0-.8-.64,1.324,1.324,0,0,0-.913.041,1.553,1.553,0,0,0-.926.967,2.6,2.6,0,0,0,.218,1.771,2.7,2.7,0,0,0,1.076,1.431,1.471,1.471,0,0,0,1.308.041,1.377,1.377,0,0,0,.777-.708A1.764,1.764,0,0,0,1435.688,546.047Z" transform="translate(-1431.192 -536.776)"/><path class="c" d="M1469.853,530.823a3.02,3.02,0,0,1-.082-2.6,2.762,2.762,0,0,1,1.472-1.321,2.635,2.635,0,0,1,2.152-.014,3.058,3.058,0,0,1,1.553,1.744,4.062,4.062,0,0,1,.368,1.8,2.4,2.4,0,0,1-.531,1.322,2.959,2.959,0,0,1-1.185.885,2.669,2.669,0,0,1-2.166.027A3.227,3.227,0,0,1,1469.853,530.823Zm.954-.4a2.571,2.571,0,0,0,1.1,1.39,1.574,1.574,0,0,0,1.376.041,1.53,1.53,0,0,0,.926-.995,2.568,2.568,0,0,0-.2-1.8,2.391,2.391,0,0,0-1.09-1.349,1.65,1.65,0,0,0-2.3.94A2.54,2.54,0,0,0,1470.807,530.428Z" transform="translate(-1464.293 -522.846)"/><path class="c" d="M1511.562,506.8l-2.262-5.477.832-.341.313.763a2.083,2.083,0,0,1,1.294-1.567,2.065,2.065,0,0,1,1.1-.163,1.513,1.513,0,0,1,.845.477,2.122,2.122,0,0,1,1.294-1.662,1.856,1.856,0,0,1,1.444-.068,2.059,2.059,0,0,1,1.008,1.212l1.553,3.76-.927.382-1.417-3.447a2.787,2.787,0,0,0-.422-.763.787.787,0,0,0-.49-.259.969.969,0,0,0-.613.082,1.452,1.452,0,0,0-.8.777,1.835,1.835,0,0,0,.123,1.389l1.308,3.188-.927.382-1.471-3.556a1.582,1.582,0,0,0-.613-.831.894.894,0,0,0-.872,0,1.454,1.454,0,0,0-.64.5,1.246,1.246,0,0,0-.231.8,3.954,3.954,0,0,0,.327,1.213l1.172,2.848Z" transform="translate(-1498.658 -498.647)"/></g><g transform="translate(173.64 0)"><g transform="translate(1.431 0.94)"><path d="M1600,436.454a3.943,3.943,0,0,1,.613-.055,1.063,1.063,0,0,1,.722.2.668.668,0,0,1-.272,1.1v.014a.648.648,0,0,1,.368.5,3.929,3.929,0,0,0,.191.681h-.327a3.108,3.108,0,0,1-.164-.586c-.068-.341-.2-.477-.49-.477h-.3v1.076h-.314v-2.466Zm.327,1.131h.328c.34,0,.558-.191.558-.477,0-.313-.232-.463-.572-.463a1.456,1.456,0,0,0-.314.027Z" transform="translate(-1600 -436.4)"/></g><g transform="translate(0)"><path d="M1591.68,433.86a2.18,2.18,0,1,1,2.18-2.18A2.186,2.186,0,0,1,1591.68,433.86Zm0-4.087a1.907,1.907,0,1,0,1.907,1.907A1.913,1.913,0,0,0,1591.68,429.772Z" transform="translate(-1589.5 -429.5)"/></g></g></svg>