<svg xmlns="http://www.w3.org/2000/svg" width="34" height="34" viewBox="0 0 34 34"><defs><style>.a{fill:#defbff;}.b{fill:#00ceff;stroke:#00ceff;}</style></defs><g transform="translate(-32.213 -176.212)"><rect class="a" width="34" height="34" rx="8" transform="translate(32.213 176.212)"/><path class="b" d="M-21.1-1.6-22.776-7.13a1.138,1.138,0,0,0-2.182,0L-26.648-1.6h-5.083A1.14,1.14,0,0,0-32.393.466l4.158,2.97L-29.869,8.7a1.141,1.141,0,0,0,1.782,1.245l4.215-3.2,4.215,3.21a1.141,1.141,0,0,0,1.782-1.245l-1.633-5.265,4.158-2.97a1.14,1.14,0,0,0-.662-2.067H-21.1Z" transform="translate(73.585 191.656)"/></g></svg>